<svg xmlns="http://www.w3.org/2000/svg" xmlns:xlink="http://www.w3.org/1999/xlink" width="281.932" height="149.568" viewBox="0 0 281.932 149.568">
  <defs>
    <filter id="Elipse_4977" x="67.716" y="0" width="149.568" height="149.568" filterUnits="userSpaceOnUse">
      <feOffset dy="3" input="SourceAlpha"/>
      <feGaussianBlur stdDeviation="3" result="blur"/>
      <feFlood flood-opacity="0.161"/>
      <feComposite operator="in" in2="blur"/>
      <feComposite in="SourceGraphic"/>
    </filter>
  </defs>
  <g id="Grupo_113621" data-name="Grupo 113621" transform="translate(-810.5 -1824.001)">
    <g id="Grupo_56209" data-name="Grupo 56209" transform="translate(810.5 1876.205)">
      <g id="Grupo_56119" data-name="Grupo 56119">
        <path id="Trazado_184960" data-name="Trazado 184960" d="M137.854,173.7l-23.921,39.16H216.947V173.7Z" transform="translate(-113.934 -173.704)" fill="#037562"/>
        <path id="Trazado_184961" data-name="Trazado 184961" d="M258.423,173.7l27.305,39.16H179.33V173.7Z" transform="translate(-3.796 -173.704)" fill="#037562"/>
      </g>
    </g>
    <path id="Trazado_149753" data-name="Trazado 149753" d="M349.51,206.98h0a1054.865,1054.865,0,0,1-222.5,0h0V173.7h222.5Z" transform="translate(711.863 1702.502)" fill="#048c66"/>
    <g id="Grupo_113254" data-name="Grupo 113254">
      <g transform="matrix(1, 0, 0, 1, 810.5, 1824)" filter="url(#Elipse_4977)">
        <g id="Elipse_4977-2" data-name="Elipse 4977" transform="translate(76.72 6)" fill="#fff" stroke="#048c66" stroke-width="9">
          <circle cx="65.784" cy="65.784" r="65.784" stroke="none"/>
          <circle cx="65.784" cy="65.784" r="61.284" fill="none"/>
        </g>
      </g>
      <g id="Grupo_108023" data-name="Grupo 108023" transform="translate(586.07 1810.828)">
        <path id="Trazado_191881" data-name="Trazado 191881" d="M380.924,82.9,397.5,66.332l.217-.335,7.461-19.953-1.209-1.21L384.01,52.294l-.335.217L367.1,69.082l-25-25L325.184,61l25,25-22.662,22.662a5.641,5.641,0,0,0,0,7.949l5.871,5.871a5.638,5.638,0,0,0,7.95,0l22.66-22.659,25,25,16.918-16.917Zm-4.02-4.02,15.208-15.208,3.24,2.142L379.6,81.576Zm10.63-19.537,3.116,3.133L375.576,77.556l-3.125-3.125Zm8.829,4.89-3.787-2.484-4.324-4.322-2.484-3.789,9.03-3.376a13.524,13.524,0,0,0,4.941,4.941Zm4.047-10.823a11.517,11.517,0,0,1-3.82-3.817l6.1-2.282Zm-16.224,1.242,2.131,3.251L371.122,73.1l-2.691-2.691ZM354.205,90.019,337.225,107l-2.691-2.691,16.98-16.98ZM344.369,116.8l-1.2,1.2-11.163-11.163,1.2-1.2Zm-5.816-8.474,16.98-16.98,3.125,3.125-16.98,16.98Zm1.468,12.82a3.757,3.757,0,0,1-5.3,0l-5.871-5.871a3.756,3.756,0,0,1,0-5.292l1.823-1.823,11.163,11.163Zm5.677-5.676-2.691-2.691,16.98-16.98,2.691,2.691ZM327.843,61,342.1,46.739l3.293,3.294-3.044,3.044,1.329,1.329,3.044-3.044,3.389,3.388-3.044,3.044,1.329,1.329,3.044-3.044,3.388,3.388-6.611,6.611,1.329,1.329,6.611-6.611,3.388,3.389L356.5,67.229l1.329,1.329,3.044-3.044,3.389,3.388-3.044,3.044,1.329,1.329,3.044-3.044,3.388,3.388-6.611,6.613,1.329,1.327,6.611-6.611,3.388,3.389-3.044,3.044,1.329,1.329,3.044-3.044,3.389,3.388L375.372,86.1l1.329,1.329,3.044-3.044,3.388,3.389-6.611,6.611,1.329,1.329,6.611-6.611,3.388,3.388-3.042,3.044,1.329,1.329,3.042-3.044,3.389,3.388-3.044,3.044,1.329,1.329,3.044-3.044,3.388,3.389-6.611,6.611L392,109.864l6.611-6.611,4.655,4.653-14.259,14.259Z" transform="translate(0)" fill="#3bbf74"/>
        <path id="Trazado_191882" data-name="Trazado 191882" d="M334.63,67.232a.941.941,0,0,0-1.119.717,29.078,29.078,0,0,0-.658,6.187,29.463,29.463,0,0,0,1.314,8.722.94.94,0,0,0,.9.662.979.979,0,0,0,.278-.042.941.941,0,0,0,.62-1.176,27.556,27.556,0,0,1-1.23-8.167,27.217,27.217,0,0,1,.615-5.787A.94.94,0,0,0,334.63,67.232Z" transform="translate(3.42 10.316)" fill="#3bbf74"/>
        <path id="Trazado_191883" data-name="Trazado 191883" d="M349.458,54.241a27.671,27.671,0,0,1,13.929.63.916.916,0,0,0,.282.043.94.94,0,0,0,.282-1.836,29.541,29.541,0,0,0-14.9-.671.939.939,0,0,0,.411,1.834Z" transform="translate(10.316 3.422)" fill="#3bbf74"/>
        <path id="Trazado_191884" data-name="Trazado 191884" d="M372.554,81.795a.94.94,0,0,0,1.119-.717,29.312,29.312,0,0,0-.674-14.9.94.94,0,0,0-1.793.564,27.413,27.413,0,0,1,.629,13.935A.94.94,0,0,0,372.554,81.795Z" transform="translate(20.506 9.562)" fill="#3bbf74"/>
        <path id="Trazado_191885" data-name="Trazado 191885" d="M361.779,90.73a27.944,27.944,0,0,1-13.948-.617.94.94,0,1,0-.554,1.8A29.588,29.588,0,0,0,356,93.222a28.359,28.359,0,0,0,6.192-.659.939.939,0,1,0-.411-1.834Z" transform="translate(9.557 20.511)" fill="#3bbf74"/>
      </g>
    </g>
  </g>
</svg>
