<svg xmlns="http://www.w3.org/2000/svg" xmlns:xlink="http://www.w3.org/1999/xlink" width="281.932" height="149.568" viewBox="0 0 281.932 149.568">
  <defs>
    <filter id="Elipse_4976" x="64.839" y="0" width="149.568" height="149.568" filterUnits="userSpaceOnUse">
      <feOffset dy="3" input="SourceAlpha"/>
      <feGaussianBlur stdDeviation="3" result="blur"/>
      <feFlood flood-opacity="0.161"/>
      <feComposite operator="in" in2="blur"/>
      <feComposite in="SourceGraphic"/>
    </filter>
  </defs>
  <g id="Grupo_113619" data-name="Grupo 113619" transform="translate(-199.824 -1824.001)">
    <g id="Grupo_56213" data-name="Grupo 56213" transform="translate(199.824 1879.195)">
      <path id="Trazado_184960" data-name="Trazado 184960" d="M137.854,173.7l-23.921,39.16H216.947V173.7Z" transform="translate(-113.934 -173.704)" fill="#037562"/>
      <path id="Trazado_184961" data-name="Trazado 184961" d="M258.423,173.7l27.305,39.16H179.33V173.7Z" transform="translate(-3.796 -173.704)" fill="#037562"/>
    </g>
    <path id="Trazado_149755" data-name="Trazado 149755" d="M349.51,206.98h0a1054.865,1054.865,0,0,1-222.5,0h0V173.7h222.5Z" transform="translate(101.188 1705.491)" fill="#048c66"/>
    <g id="Grupo_113256" data-name="Grupo 113256">
      <g transform="matrix(1, 0, 0, 1, 199.82, 1824)" filter="url(#Elipse_4976)">
        <g id="Elipse_4976-2" data-name="Elipse 4976" transform="translate(73.84 6)" fill="#fff" stroke="#048c66" stroke-width="9">
          <circle cx="65.784" cy="65.784" r="65.784" stroke="none"/>
          <circle cx="65.784" cy="65.784" r="61.284" fill="none"/>
        </g>
      </g>
      <g id="Grupo_108021" data-name="Grupo 108021" transform="translate(-27.723 1450.541)">
        <path id="Trazado_191872" data-name="Trazado 191872" d="M338.095,436.149l-1.356-1.356-4.366,4.365-1.121-1.12-1.356,1.357,2.477,2.478Z" transform="translate(2.115 17.137)" fill="#3bbf74"/>
        <rect id="Rectángulo_40327" data-name="Rectángulo 40327" width="8.057" height="1.919" transform="translate(344.152 453.315)" fill="#3bbf74"/>
        <rect id="Rectángulo_40328" data-name="Rectángulo 40328" width="13.162" height="1.919" transform="translate(338.974 459.46)" fill="#3bbf74"/>
        <rect id="Rectángulo_40329" data-name="Rectángulo 40329" width="20.014" height="1.919" transform="translate(331.869 465.605)" fill="#3bbf74"/>
        <rect id="Rectángulo_40330" data-name="Rectángulo 40330" width="20.014" height="1.919" transform="translate(331.869 471.888)" fill="#3bbf74"/>
        <path id="Trazado_191873" data-name="Trazado 191873" d="M369.719,411.275a.956.956,0,0,0-1.142-.731,43.127,43.127,0,0,1-19.314,0,.959.959,0,1,0-.412,1.873,45,45,0,0,0,20.138,0A.959.959,0,0,0,369.719,411.275Z" transform="translate(11.506 4.988)" fill="#3bbf74"/>
        <path id="Trazado_191874" data-name="Trazado 191874" d="M399.6,454l-16.037-8.624a4.638,4.638,0,0,1-2.438-4.077v-5.138a18.41,18.41,0,0,0,2.954-6.7,3.376,3.376,0,0,0,3.08-3.5v-1.395a3.548,3.548,0,0,0-1.927-3.215c-.02-.583-.075-1.165-.146-1.747,1.867-.6,2.995-1.093,3.113-1.147l.783-.348-1.53-5.1-1.788.577a18.413,18.413,0,0,0-9.26-10.141,3.209,3.209,0,0,0-3.061-2.919H367.47a3.209,3.209,0,0,0-3.061,2.918,18.388,18.388,0,0,0-9.253,10.144l-1.8-.577-1.53,5.1.783.348a33.434,33.434,0,0,0,3.139,1.155c-.067.583-.145,1.167-.165,1.736a3.546,3.546,0,0,0-1.938,3.218v1.395a3.376,3.376,0,0,0,3.079,3.5,18.405,18.405,0,0,0,2.96,6.714v5.118a4.556,4.556,0,0,1-1.575,3.423l-8-7.994H327.468a2.016,2.016,0,0,0-2.015,2.012v42.1a2.016,2.016,0,0,0,2.015,2.012H357.4a2.015,2.015,0,0,0,2.016-2.012v-3.887l2.758,4.119,1.623-1.081-4.38-6.542V458.734l9.665,22.18h2.648l14-32.158,2.243,1.206.643,8.546-7.332,3.618,4.094,5.364-8.362,12.5,1.621,1.081,9.134-13.652-3.5-4.59,6.391-3.153-.651-8.615,8.66,4.657a14.71,14.71,0,0,1,7.756,12.969v11.843h1.95V468.683A16.652,16.652,0,0,0,399.6,454Zm-44.944-38.533,1.692.544.313-.9a16.977,16.977,0,0,1,7.7-9.5v3.9a.975.975,0,0,0,1.95,0v-5.592a1.352,1.352,0,0,1,1.156-1.457h5.877a1.335,1.335,0,0,1,1.156,1.457v5.592a.975.975,0,0,0,1.949,0v-3.9a16.991,16.991,0,0,1,7.708,9.5l.314.9,1.686-.544.457,1.528a45.125,45.125,0,0,1-32.418,0Zm2.177,12.048a1.426,1.426,0,0,1-1.236-1.558v-1.395a1.5,1.5,0,0,1,1.1-1.543l.826-.154v-.834c0-.611.042-1.233.105-1.863a46.566,46.566,0,0,0,25.558,0,18.381,18.381,0,0,1,.108,1.891v.834l.825.127a1.5,1.5,0,0,1,1.09,1.544v1.395a1.428,1.428,0,0,1-1.237,1.558h-1.75v.974c0,2.611-4.305,12.2-11.826,12.2s-11.813-9.588-11.813-12.2v-.974Zm13.563,15.12a12.146,12.146,0,0,0,8.779-4.061V441.3a6.554,6.554,0,0,0,.943,3.387l-9.71,8.7-9.725-8.709a6.51,6.51,0,0,0,.954-3.388v-2.707A12.128,12.128,0,0,0,370.4,442.635Zm1.878,18.854h-3.862l-1.732-2.608,3.724-2.936,3.641,2.87Zm-21.595-21.446,5.391,5.387-5.391-.046ZM327.4,480.832l.066-42.165h21.263v6.717a2.015,2.015,0,0,0,2.014,2.013h6.723l-.064,33.5Zm32.017-34.638.017-.015,9.463,8.472-6.8,5.361-2.683-6.161Zm5.729,13.9,1.716,2.585-1.026,5.9-2.926-6.72Zm5.261,18.979-3.155-7.245,1.458-8.388h3.254l1.5,8.609Zm4.472-10.268-1.066-6.109,1.768-2.668,2.323,1.83Zm3.829-8.793-6.792-5.352,9.454-8.475a6.644,6.644,0,0,0,1.267.908l1.375.739Z" transform="translate(0 0)" fill="#3bbf74"/>
      </g>
    </g>
  </g>
</svg>
