<svg xmlns="http://www.w3.org/2000/svg" width="97.176" height="97.176" viewBox="0 0 97.176 97.176">
  <g id="Grupo_113623" data-name="Grupo 113623" transform="translate(-1169.19 -2802.222)">
    <g id="Grupo_108100" data-name="Grupo 108100">
      <g id="Grupo_108053" data-name="Grupo 108053" transform="translate(884.19 -21)">
        <path id="Trazado_147158" data-name="Trazado 147158" d="M97.176,48.588A48.588,48.588,0,1,1,48.588,0,48.588,48.588,0,0,1,97.176,48.588" transform="translate(285 2823.222)" fill="#f28705"/>
        <path id="Trazado_147159" data-name="Trazado 147159" d="M95.824,55.065a40.76,40.76,0,1,1-40.76-40.76,40.759,40.759,0,0,1,40.76,40.76Z" transform="translate(278.522 2816.744)" fill="#fff"/>
      </g>
      <g id="Grupo_108098" data-name="Grupo 108098" transform="translate(941.06 2573.834)">
        <g id="Grupo_108092" data-name="Grupo 108092" transform="translate(255.958 239.256)">
          <path id="Trazado_192014" data-name="Trazado 192014" d="M258.462,263.868a45.827,45.827,0,0,0,34.11,0,45.827,45.827,0,0,0-34.11,0Z" transform="translate(-255.744 -237.43)" fill="#e6ae7e"/>
          <g id="Grupo_108086" data-name="Grupo 108086" transform="translate(1.282)">
            <path id="Trazado_192015" data-name="Trazado 192015" d="M277.59,243.4c-.024.522-.357.928-.743.911l-3.691-.188c-.388-.022-.676-.458-.65-.981l.149-2.973c.027-.523.363-.932.751-.91l3.685.188c.385.016.677.455.649.98Z" transform="translate(-255.823 -239.256)" fill="#aebfce"/>
            <path id="Trazado_192016" data-name="Trazado 192016" d="M276.247,269.831c.025-.524-.265-.964-.648-.983l-3.691-.182c-.384-.025-.719.387-.747.907l-.15,2.976c-.026.522.262.961.648.981l3.694.184c.384.022.717-.387.74-.908Z" transform="translate(-255.951 -236.737)" fill="#aebfce"/>
            <path id="Trazado_192017" data-name="Trazado 192017" d="M270.651,243.589a.846.846,0,0,1-.19,1.157l-3.29,1.683a.855.855,0,0,1-1.053-.522l-1.356-2.652a.852.852,0,0,1,.189-1.159l3.291-1.682a.848.848,0,0,1,1.053.521Z" transform="translate(-256.498 -239.162)" fill="#aebfce"/>
            <path id="Trazado_192018" data-name="Trazado 192018" d="M282.706,267.152a.85.85,0,0,0-1.053-.527l-3.286,1.684a.852.852,0,0,0-.2,1.162l1.358,2.65a.853.853,0,0,0,1.056.524l3.289-1.683a.853.853,0,0,0,.19-1.163Z" transform="translate(-255.349 -236.916)" fill="#aebfce"/>
            <path id="Trazado_192019" data-name="Trazado 192019" d="M264.688,247.208a.851.851,0,0,1,.42,1.1l-2.01,3.1a.853.853,0,0,1-1.177.073l-2.495-1.619a.85.85,0,0,1-.415-1.1l2.006-3.1a.85.85,0,0,1,1.173-.071Z" transform="translate(-256.986 -238.73)" fill="#aebfce"/>
            <path id="Trazado_192020" data-name="Trazado 192020" d="M286.91,261.584a.856.856,0,0,0-1.174.074l-2,3.1a.848.848,0,0,0,.413,1.1l2.5,1.614a.849.849,0,0,0,1.176-.073l2-3.1a.846.846,0,0,0-.415-1.1Z" transform="translate(-254.868 -237.36)" fill="#aebfce"/>
            <path id="Trazado_192021" data-name="Trazado 192021" d="M261.28,253.279c.523.028.934.36.914.745l-.19,3.69c-.019.384-.459.676-.978.65l-2.976-.152c-.523-.027-.933-.362-.91-.749l.187-3.684c.02-.389.458-.679.981-.649Z" transform="translate(-257.139 -238.068)" fill="#aebfce"/>
            <path id="Trazado_192022" data-name="Trazado 192022" d="M287.718,254.624c-.523-.027-.967.262-.983.648l-.188,3.687c-.021.388.389.724.912.747l2.97.153c.524.025.963-.266.984-.651l.186-3.689c.021-.387-.391-.719-.911-.747Z" transform="translate(-254.62 -237.94)" fill="#aebfce"/>
            <path id="Trazado_192023" data-name="Trazado 192023" d="M261.471,260.291a.853.853,0,0,1,1.162.19l1.682,3.29a.852.852,0,0,1-.524,1.053l-2.652,1.356a.851.851,0,0,1-1.162-.192L258.3,262.7a.852.852,0,0,1,.526-1.054Z" transform="translate(-257.045 -237.466)" fill="#aebfce"/>
            <path id="Trazado_192024" data-name="Trazado 192024" d="M285.034,248.236a.853.853,0,0,0-.522,1.053l1.682,3.286a.847.847,0,0,0,1.16.194L290,251.415a.848.848,0,0,0,.521-1.055l-1.678-3.289a.853.853,0,0,0-1.162-.191Z" transform="translate(-254.799 -238.615)" fill="#aebfce"/>
            <path id="Trazado_192025" data-name="Trazado 192025" d="M265.088,266.262a.855.855,0,0,1,1.1-.416l3.1,2a.859.859,0,0,1,.074,1.18l-1.621,2.5a.851.851,0,0,1-1.1.411l-3.1-2.005a.853.853,0,0,1-.075-1.174Z" transform="translate(-256.613 -236.986)" fill="#aebfce"/>
            <path id="Trazado_192026" data-name="Trazado 192026" d="M279.468,244.04a.853.853,0,0,0,.076,1.176l3.1,2a.844.844,0,0,0,1.1-.411l1.62-2.5a.855.855,0,0,0-.074-1.174l-3.1-2.008a.856.856,0,0,0-1.1.413Z" transform="translate(-255.243 -239.103)" fill="#aebfce"/>
            <path id="Trazado_192027" data-name="Trazado 192027" d="M276.188,241.963a15.571,15.571,0,1,0,14.761,16.343A15.568,15.568,0,0,0,276.188,241.963Zm11.8,16.192a12.609,12.609,0,1,1-11.953-13.231A12.614,12.614,0,0,1,287.991,258.154Z" transform="translate(-256.909 -239.026)" fill="#768296"/>
          </g>
          <g id="Grupo_108087" data-name="Grupo 108087" transform="translate(10.03 9.252)">
            <path id="Trazado_192028" data-name="Trazado 192028" d="M272.284,249.214c-.008.179-.125.32-.258.313l-1.278-.064c-.138-.006-.235-.157-.227-.34l.051-1.029c.012-.182.127-.324.261-.316l1.278.065c.13.007.234.159.225.339Z" transform="translate(-264.741 -247.778)" fill="#ffa229"/>
            <path id="Trazado_192029" data-name="Trazado 192029" d="M271.817,258.373c.011-.181-.09-.335-.225-.341l-1.278-.063c-.132-.009-.25.134-.258.313L270,259.313c-.009.181.091.334.227.341l1.279.063c.132.008.248-.132.255-.313Z" transform="translate(-264.785 -246.905)" fill="#ffa229"/>
            <path id="Trazado_192030" data-name="Trazado 192030" d="M269.879,249.278a.292.292,0,0,1-.065.4l-1.142.583c-.117.06-.278-.021-.363-.181l-.469-.918a.292.292,0,0,1,.063-.4l1.142-.583a.29.29,0,0,1,.365.18Z" transform="translate(-264.974 -247.745)" fill="#ffa229"/>
            <path id="Trazado_192031" data-name="Trazado 192031" d="M274.057,257.446c-.084-.165-.246-.245-.364-.185l-1.141.583a.3.3,0,0,0-.071.4l.472.919a.3.3,0,0,0,.368.182l1.138-.583a.3.3,0,0,0,.067-.4Z" transform="translate(-264.576 -246.967)" fill="#ffa229"/>
            <path id="Trazado_192032" data-name="Trazado 192032" d="M267.813,250.531a.3.3,0,0,1,.147.382l-.7,1.075a.294.294,0,0,1-.407.027l-.865-.561a.3.3,0,0,1-.143-.382L266.54,250a.3.3,0,0,1,.406-.024Z" transform="translate(-265.144 -247.595)" fill="#ffa229"/>
            <path id="Trazado_192033" data-name="Trazado 192033" d="M275.513,255.514a.3.3,0,0,0-.407.026l-.694,1.076a.292.292,0,0,0,.141.382l.87.559a.293.293,0,0,0,.406-.025l.692-1.074a.292.292,0,0,0-.141-.382Z" transform="translate(-264.41 -247.121)" fill="#ffa229"/>
            <path id="Trazado_192034" data-name="Trazado 192034" d="M266.632,252.637c.181.01.321.125.316.258l-.066,1.278c-.005.135-.16.234-.339.226l-1.033-.053c-.18-.011-.321-.125-.314-.259l.065-1.276c.005-.135.157-.237.34-.226Z" transform="translate(-265.197 -247.366)" fill="#ffa229"/>
            <path id="Trazado_192035" data-name="Trazado 192035" d="M275.793,253.1c-.18-.01-.335.092-.341.225l-.064,1.277c-.007.135.134.252.316.259l1.029.052c.182.01.334-.09.339-.225l.067-1.278c.005-.135-.136-.251-.316-.259Z" transform="translate(-264.324 -247.322)" fill="#ffa229"/>
            <path id="Trazado_192036" data-name="Trazado 192036" d="M266.7,255.067a.3.3,0,0,1,.4.065l.582,1.141a.294.294,0,0,1-.181.364l-.92.47a.3.3,0,0,1-.4-.066L265.6,255.9a.3.3,0,0,1,.18-.366Z" transform="translate(-265.164 -247.157)" fill="#ffa229"/>
            <path id="Trazado_192037" data-name="Trazado 192037" d="M274.864,250.89a.294.294,0,0,0-.181.365l.584,1.139a.291.291,0,0,0,.4.066l.919-.468a.3.3,0,0,0,.179-.367l-.583-1.138a.293.293,0,0,0-.4-.067Z" transform="translate(-264.386 -247.555)" fill="#ffa229"/>
            <path id="Trazado_192038" data-name="Trazado 192038" d="M267.951,257.135a.3.3,0,0,1,.383-.143l1.075.695a.3.3,0,0,1,.025.407l-.562.869a.3.3,0,0,1-.381.142l-1.075-.7a.294.294,0,0,1-.024-.406Z" transform="translate(-265.014 -246.991)" fill="#ffa229"/>
            <path id="Trazado_192039" data-name="Trazado 192039" d="M272.934,249.435a.3.3,0,0,0,.027.407l1.074.7a.3.3,0,0,0,.381-.144l.561-.866a.3.3,0,0,0-.024-.406l-1.078-.7a.3.3,0,0,0-.381.143Z" transform="translate(-264.539 -247.725)" fill="#ffa229"/>
            <path id="Trazado_192040" data-name="Trazado 192040" d="M271.8,248.716a5.4,5.4,0,1,0,5.115,5.663A5.4,5.4,0,0,0,271.8,248.716Zm-.452,8.935a3.552,3.552,0,1,1,3.728-3.366A3.546,3.546,0,0,1,271.346,257.651Z" transform="translate(-265.117 -247.698)" fill="#ffa229"/>
          </g>
          <g id="Grupo_108088" data-name="Grupo 108088" transform="translate(20.025 18.233)">
            <path id="Trazado_192041" data-name="Trazado 192041" d="M279.507,257.067c0,.137-.081.244-.18.244l-.952-.007c-.1,0-.178-.112-.177-.246l.007-.766c0-.134.083-.243.182-.242l.948.01c.1,0,.182.109.179.243Z" transform="translate(-274.078 -256.05)" fill="#1c4670"/>
            <path id="Trazado_192042" data-name="Trazado 192042" d="M279.454,263.885c0-.133-.079-.244-.178-.245l-.951-.008c-.1,0-.181.109-.181.242l-.005.766c0,.135.077.244.177.246l.953.005c.1,0,.18-.107.179-.241Z" transform="translate(-274.083 -255.4)" fill="#1c4670"/>
            <path id="Trazado_192043" data-name="Trazado 192043" d="M277.725,257.2a.211.211,0,0,1-.037.3l-.825.469a.221.221,0,0,1-.277-.124l-.379-.667a.218.218,0,0,1,.036-.3l.828-.469c.086-.051.212.008.278.124Z" transform="translate(-274.252 -256.021)" fill="#1c4670"/>
            <path id="Trazado_192044" data-name="Trazado 192044" d="M281.087,263.127a.216.216,0,0,0-.275-.124l-.828.468a.218.218,0,0,0-.037.3l.379.667c.066.116.192.174.275.125l.829-.47a.221.221,0,0,0,.037-.3Z" transform="translate(-273.932 -255.456)" fill="#1c4670"/>
            <path id="Trazado_192045" data-name="Trazado 192045" d="M276.231,258.194a.218.218,0,0,1,.119.279l-.481.819a.22.22,0,0,1-.3.033l-.66-.39c-.115-.069-.17-.192-.115-.278l.479-.822a.218.218,0,0,1,.3-.028Z" transform="translate(-274.372 -255.903)" fill="#1c4670"/>
            <path id="Trazado_192046" data-name="Trazado 192046" d="M282.106,261.648a.22.22,0,0,0-.3.029l-.48.822c-.055.086,0,.21.119.279l.66.388a.221.221,0,0,0,.3-.029l.481-.822a.219.219,0,0,0-.119-.279Z" transform="translate(-273.812 -255.574)" fill="#1c4670"/>
            <path id="Trazado_192047" data-name="Trazado 192047" d="M275.421,259.793c.135,0,.242.081.242.181l-.008.951c0,.1-.114.178-.244.178l-.768-.005c-.137,0-.243-.082-.241-.183l.005-.949c0-.1.113-.18.246-.179Z" transform="translate(-274.403 -255.73)" fill="#1c4670"/>
            <path id="Trazado_192048" data-name="Trazado 192048" d="M282.239,259.847c-.135,0-.245.079-.249.177l-.009.951a.225.225,0,0,0,.244.184l.766,0c.135,0,.243-.079.246-.179l.005-.951c0-.1-.105-.18-.24-.182Z" transform="translate(-273.754 -255.725)" fill="#1c4670"/>
            <path id="Trazado_192049" data-name="Trazado 192049" d="M275.551,261.6a.219.219,0,0,1,.3.037l.468.829c.051.084,0,.208-.122.275l-.668.378a.217.217,0,0,1-.3-.037l-.468-.826a.224.224,0,0,1,.122-.278Z" transform="translate(-274.374 -255.578)" fill="#1c4670"/>
            <path id="Trazado_192050" data-name="Trazado 192050" d="M281.477,258.234a.223.223,0,0,0-.124.278l.473.827a.215.215,0,0,0,.3.037l.67-.38a.218.218,0,0,0,.124-.276l-.47-.829a.223.223,0,0,0-.3-.035Z" transform="translate(-273.809 -255.899)" fill="#1c4670"/>
            <path id="Trazado_192051" data-name="Trazado 192051" d="M276.544,263.09a.223.223,0,0,1,.28-.118l.821.482a.217.217,0,0,1,.029.3l-.389.662a.219.219,0,0,1-.278.118l-.818-.481a.216.216,0,0,1-.034-.3Z" transform="translate(-274.256 -255.459)" fill="#1c4670"/>
            <path id="Trazado_192052" data-name="Trazado 192052" d="M280,257.215a.224.224,0,0,0,.031.3l.821.479a.219.219,0,0,0,.28-.117l.385-.66a.215.215,0,0,0-.033-.3l-.818-.482a.219.219,0,0,0-.279.116Z" transform="translate(-273.927 -256.018)" fill="#1c4670"/>
            <path id="Trazado_192053" data-name="Trazado 192053" d="M279.121,256.729a4.01,4.01,0,1,0,3.979,4.041A4.012,4.012,0,0,0,279.121,256.729Zm-.05,6.649a2.64,2.64,0,1,1,2.658-2.619A2.636,2.636,0,0,1,279.071,263.378Z" transform="translate(-274.345 -255.992)" fill="#1c4670"/>
          </g>
          <path id="Trazado_192054" data-name="Trazado 192054" d="M292.815,277.4h-.334c.141-1.163.288-2.3.427-3.387a30.45,30.45,0,0,0-.15-10.388,45.857,45.857,0,0,1-34.051,0,30.461,30.461,0,0,0-.152,10.388c.141,1.082.288,2.225.43,3.387h-.339c-2.975-2.2-3.225,3.546-1.984,5.511a11.839,11.839,0,0,1,1.67,3.594c.459,1.323,1.219,1.495,1.854,1.353.078.784.147,1.466.2,2.009.273,3.02,7.534,9.072,9.181,10.966,1.538,1.775,4.113,1.083,4.935,1.047l1.231-.06,1.229.06c.825.037,3.4.729,4.94-1.047,1.646-1.895,8.906-7.946,9.182-10.966.05-.543.119-1.225.2-2.009.637.142,1.4-.029,1.852-1.353a12.054,12.054,0,0,1,1.671-3.594C296.043,280.942,295.787,275.194,292.815,277.4Z" transform="translate(-255.958 -237.169)" fill="#f4c297"/>
          <g id="Grupo_108091" data-name="Grupo 108091" transform="translate(8.862 7.528)">
            <g id="Grupo_108089" data-name="Grupo 108089" transform="translate(0 11.91)">
              <path id="Trazado_192055" data-name="Trazado 192055" d="M275.011,267.173a10.962,10.962,0,0,1-10.89-9.913l1.037-.1a9.918,9.918,0,0,0,10.824,8.925l.1,1.038C275.724,267.156,275.366,267.173,275.011,267.173Z" transform="translate(-264.121 -257.16)" fill="#768296"/>
            </g>
            <g id="Grupo_108090" data-name="Grupo 108090" transform="translate(9.861)">
              <path id="Trazado_192056" data-name="Trazado 192056" d="M284.127,256.2a9.923,9.923,0,0,0-10.823-8.924l-.1-1.038a10.984,10.984,0,0,1,11.96,9.861Z" transform="translate(-273.204 -246.19)" fill="#768296"/>
            </g>
          </g>
        </g>
        <g id="Grupo_108097" data-name="Grupo 108097" transform="translate(275.771 284.742)">
          <g id="Grupo_108093" data-name="Grupo 108093" transform="translate(0 0.752)">
            <path id="Trazado_192057" data-name="Trazado 192057" d="M274.275,285c.1-.811.5-.384.616.2s1.184,4.435,4.133,1.462c3-2.919-.836-4.027-1.42-4.147s-1.009-.524-.2-.616a5.067,5.067,0,0,1,4.747,1.661c1.745,2.036.028,4.393-.917,5.332s-3.324,2.633-5.342.872A5.083,5.083,0,0,1,274.275,285Z" transform="translate(-274.208 -281.845)" fill="#1c4670"/>
            <path id="Trazado_192058" data-name="Trazado 192058" d="M294.869,305.789c.814-.093.39-.493-.2-.612s-4.421-1.229-1.42-4.148c2.945-2.976,4.014.873,4.132,1.459s.514,1.014.612.2a5.069,5.069,0,0,0-1.613-4.761c-2.022-1.763-4.393-.069-5.343.868s-2.662,3.3-.919,5.333A5.062,5.062,0,0,0,294.869,305.789Z" transform="translate(-272.908 -280.533)" fill="#1c4670"/>
            <rect id="Rectángulo_40376" data-name="Rectángulo 40376" width="1.724" height="16.703" transform="translate(6.704 6.724) rotate(-44.727)" fill="#1c4670"/>
            <rect id="Rectángulo_40377" data-name="Rectángulo 40377" width="1.726" height="16.703" transform="translate(5.476 7.942) rotate(-44.75)" fill="#1c4670"/>
            <path id="Trazado_192059" data-name="Trazado 192059" d="M294.673,305.048c.585.119,1.01.519.2.612a5.062,5.062,0,0,1-4.746-1.66c-1.744-2.036-.028-4.394.919-5.333l2.211,2.232C290.252,303.819,294.089,304.926,294.673,305.048Z" transform="translate(-272.908 -280.403)" fill="#1c4670"/>
            <path id="Trazado_192060" data-name="Trazado 192060" d="M275.9,289.555a5.083,5.083,0,0,1-1.62-4.765c.1-.811.5-.384.616.2s1.184,4.435,4.133,1.462l2.213,2.23C280.286,289.621,277.912,291.316,275.9,289.555Z" transform="translate(-274.208 -281.631)" fill="#1c4670"/>
          </g>
          <g id="Grupo_108096" data-name="Grupo 108096" transform="translate(0.891 0)">
            <g id="Grupo_108094" data-name="Grupo 108094" transform="translate(10.003)">
              <path id="Trazado_192061" data-name="Trazado 192061" d="M296.084,284.314l-.941-.946-10.9,10.8.938.95Z" transform="translate(-284.242 -280.962)" fill="#fcd751"/>
              <rect id="Rectángulo_40378" data-name="Rectángulo 40378" width="15.346" height="1.332" transform="translate(0.931 14.144) rotate(-44.647)" fill="#ffa229"/>
              <path id="Trazado_192062" data-name="Trazado 192062" d="M294.1,285.715s-1.5-2.042-.755-2.812,4.193-2.388,5.087-1.484Z" transform="translate(-283.48 -281.152)" fill="#fcd751"/>
              <path id="Trazado_192063" data-name="Trazado 192063" d="M294.022,285.694s2.028,1.519,2.8.778,2.43-4.168,1.529-5.074Z" transform="translate(-283.404 -281.131)" fill="#ffa229"/>
            </g>
            <g id="Grupo_108095" data-name="Grupo 108095" transform="translate(0 10.377)">
              <path id="Trazado_192064" data-name="Trazado 192064" d="M279.231,304.547a2.469,2.469,0,0,1-3.488-.016h0a2.468,2.468,0,0,1,.017-3.489l8.689-8.609a2.468,2.468,0,0,1,3.492.016h0a2.465,2.465,0,0,1-.017,3.488Z" transform="translate(-275.029 -290.624)" fill="#aebfce"/>
              <path id="Trazado_192065" data-name="Trazado 192065" d="M276.763,303.941a.5.5,0,0,1-.711.05h0a.5.5,0,0,1,.055-.71l9.663-9.572a.51.51,0,0,1,.711-.051h0a.506.506,0,0,1-.055.711Z" transform="translate(-274.951 -290.468)" fill="#768296"/>
              <path id="Trazado_192066" data-name="Trazado 192066" d="M278.158,304.431a.5.5,0,0,1-.712.051h0a.5.5,0,0,1,.058-.709l9.664-9.573a.5.5,0,0,1,.71-.049h0a.506.506,0,0,1-.059.711Z" transform="translate(-274.832 -290.426)" fill="#768296"/>
              <path id="Trazado_192067" data-name="Trazado 192067" d="M275.629,301.881a.511.511,0,0,0-.056.712h0a.509.509,0,0,0,.712-.051l9.66-9.572a.5.5,0,0,0,.058-.711h0a.5.5,0,0,0-.71.052Z" transform="translate(-274.992 -290.588)" fill="#768296"/>
              <path id="Trazado_192068" data-name="Trazado 192068" d="M288.638,295.727a1.222,1.222,0,0,1-1.732-.011l-2.893-2.917a1.227,1.227,0,0,1,.01-1.734h0a1.224,1.224,0,0,1,1.731.008l2.892,2.921a1.226,1.226,0,0,1-.008,1.734Z" transform="translate(-274.289 -290.71)" fill="#768296"/>
              <path id="Trazado_192069" data-name="Trazado 192069" d="M288.454,295.166a1,1,0,0,1-1.408-.081l-2.468-2.494a1,1,0,0,1-.069-1.4h0a.993.993,0,0,1,1.4.081l2.474,2.493a1,1,0,0,1,.067,1.4Z" transform="translate(-274.239 -290.691)" fill="#768296"/>
            </g>
          </g>
        </g>
      </g>
    </g>
  </g>
</svg>
