<svg xmlns="http://www.w3.org/2000/svg" xmlns:xlink="http://www.w3.org/1999/xlink" width="1240" height="632.573" viewBox="0 0 1240 632.573">
  <defs>
    <linearGradient id="linear-gradient" x1="0.112" y1="1.022" x2="1.071" y2="-0.269" gradientUnits="objectBoundingBox">
      <stop offset="0" stop-color="#e6e6e6"/>
      <stop offset="1" stop-color="#ccc"/>
    </linearGradient>
  </defs>
  <g id="Grupo_113621" data-name="Grupo 113621" transform="translate(-180 -4457.263)">
    <g id="Grupo_113245" data-name="Grupo 113245">
      <rect id="Rectángulo_40319" data-name="Rectángulo 40319" width="260.568" height="95.983" rx="8.144" transform="translate(1003.979 4764.281)" fill="#048c66"/>
      <rect id="Rectángulo_40320" data-name="Rectángulo 40320" width="260.568" height="95.983" rx="8.144" transform="translate(343.386 4767.951)" fill="#048c66"/>
      <path id="Trazado_191711" data-name="Trazado 191711" d="M413.376,579.007a1.834,1.834,0,0,1-1.835-1.835V564.878c0-14.737,8.063-27.3,18.757-29.228l106.319-19.174c8.973-1.618,15.74-12.632,15.74-25.616V450.652a1.835,1.835,0,0,1,3.67,0V490.86c0,14.733-8.065,27.3-18.759,29.228L430.951,539.263c-8.975,1.615-15.74,12.627-15.74,25.615v12.294A1.836,1.836,0,0,1,413.376,579.007Z" transform="translate(-109.208 4413.491)" fill="#048c66"/>
      <path id="Trazado_191712" data-name="Trazado 191712" d="M655.376,579.007a1.834,1.834,0,0,1-1.835-1.835V564.546c0-12.986-6.767-24-15.742-25.615L531.482,519.756c-10.694-1.929-18.759-14.493-18.759-29.228V450.652a1.835,1.835,0,1,1,3.67,0v39.876c0,12.986,6.767,24,15.74,25.614l106.319,19.176c10.694,1.929,18.759,14.495,18.759,29.228v12.626A1.836,1.836,0,0,1,655.376,579.007Z" transform="translate(-24.723 4413.491)" fill="#048c66"/>
      <path id="Trazado_191713" data-name="Trazado 191713" d="M502.042,668.729a1.833,1.833,0,0,1-1.835-1.835V450.652a1.835,1.835,0,0,1,3.67,0V666.894A1.835,1.835,0,0,1,502.042,668.729Z" transform="translate(-35.174 4413.491)" fill="#048c66"/>
      <path id="Trazado_191714" data-name="Trazado 191714" d="M578.317,547.7H359.763A14.89,14.89,0,0,1,344.874,532.8h0a14.89,14.89,0,0,1,14.889-14.889H578.317A14.89,14.89,0,0,1,593.208,532.8h0A14.89,14.89,0,0,1,578.317,547.7Z" transform="translate(-164.874 4471.187)" fill="#c7f2d8"/>
      <path id="Trazado_191733" data-name="Trazado 191733" d="M754.827,547.7H536.273A14.89,14.89,0,0,1,521.382,532.8h0a14.89,14.89,0,0,1,14.891-14.889H754.827A14.89,14.89,0,0,1,769.717,532.8h0A14.89,14.89,0,0,1,754.827,547.7Z" transform="translate(-17.493 4471.187)" fill="#c7f2d8"/>
      <path id="Trazado_191752" data-name="Trazado 191752" d="M666.984,586.364H448.43a14.889,14.889,0,0,1-14.889-14.891h0a14.89,14.89,0,0,1,14.889-14.891H666.984a14.892,14.892,0,0,1,14.891,14.891h0A14.89,14.89,0,0,1,666.984,586.364Z" transform="translate(-90.839 4503.472)" fill="#c7f2d8"/>
      <path id="Trazado_191771" data-name="Trazado 191771" d="M773.376,577.007a1.834,1.834,0,0,1-1.835-1.835V562.878c0-14.737,8.063-27.3,18.757-29.228l106.319-19.174c8.973-1.618,15.74-12.632,15.74-25.616V448.652a1.835,1.835,0,1,1,3.67,0V488.86c0,14.733-8.065,27.3-18.759,29.228L790.951,537.263c-8.975,1.615-15.74,12.627-15.74,25.615v12.294A1.835,1.835,0,0,1,773.376,577.007Z" transform="translate(198.567 4410.624)" fill="#048c66"/>
      <path id="Trazado_191772" data-name="Trazado 191772" d="M1015.376,577.007a1.834,1.834,0,0,1-1.835-1.835V562.546c0-12.986-6.767-24-15.742-25.615L891.482,517.756c-10.694-1.929-18.759-14.493-18.759-29.228V448.652a1.835,1.835,0,1,1,3.67,0v39.876c0,12.986,6.767,24,15.74,25.614l106.319,19.176c10.694,1.929,18.759,14.495,18.759,29.228v12.626A1.836,1.836,0,0,1,1015.376,577.007Z" transform="translate(283.052 4410.624)" fill="#048c66"/>
      <path id="Trazado_191773" data-name="Trazado 191773" d="M938.317,545.7H719.763A14.89,14.89,0,0,1,704.874,530.8h0a14.889,14.889,0,0,1,14.889-14.889H938.317A14.89,14.89,0,0,1,953.207,530.8h0A14.89,14.89,0,0,1,938.317,545.7Z" transform="translate(142.901 4468.32)" fill="#c7f2d8"/>
      <path id="Trazado_191792" data-name="Trazado 191792" d="M1114.827,545.7H896.273A14.89,14.89,0,0,1,881.382,530.8h0a14.89,14.89,0,0,1,14.891-14.889h218.554a14.89,14.89,0,0,1,14.891,14.889h0A14.89,14.89,0,0,1,1114.827,545.7Z" transform="translate(290.282 4468.32)" fill="#c7f2d8"/>
      <g id="Grupo_113622" data-name="Grupo 113622">
        <rect id="Rectángulo_40321" data-name="Rectángulo 40321" width="411.036" height="117.439" rx="32" transform="translate(609.555 4457.263)" fill="url(#linear-gradient)"/>
        <rect id="Rectángulo_40322" data-name="Rectángulo 40322" width="411.036" height="117.439" rx="32" transform="translate(609.555 4457.263)" fill="#03694d"/>
        <path id="Trazado_191707" data-name="Trazado 191707" d="M980.737,247.005c0-28.2-23.111-51.15-51.52-51.15H633.5c-28.408,0-51.52,22.946-51.52,51.15s23.112,51.15,51.52,51.15H929.217C957.626,298.155,980.737,275.209,980.737,247.005Z" transform="translate(33.511 4268.978)" fill="#c7f2d8"/>
        <path id="Trazado_191708" data-name="Trazado 191708" d="M929.423,195.6H633.709c-28.66,0-51.981,23.152-51.981,51.609s23.321,51.609,51.981,51.609H929.423c28.662,0,51.981-23.152,51.981-51.609S958.086,195.6,929.423,195.6ZM582.19,247.214c0-28.2,23.112-51.15,51.519-51.15H929.423c28.409,0,51.519,22.946,51.519,51.15s-23.11,51.15-51.519,51.15H633.709C605.3,298.364,582.19,275.418,582.19,247.214Z" transform="translate(33.302 4268.769)" fill="#c7f2d8"/>
        <path id="Trazado_195034" data-name="Trazado 195034" d="M9.15-2.656h-4.7L3.633,0H-.029L5.186-14.219H8.408L13.662,0H9.98ZM5.273-5.3H8.33L6.8-10.234Zm13.74,2.959a1.464,1.464,0,0,0,1.074-.376,1.379,1.379,0,0,0,.371-1.05h3.086A3.653,3.653,0,0,1,22.3-.918,4.631,4.631,0,0,1,19.092.2,4.689,4.689,0,0,1,15.459-1.25a5.7,5.7,0,0,1-1.328-4v-.137a6.436,6.436,0,0,1,.591-2.827,4.3,4.3,0,0,1,1.7-1.885,5.081,5.081,0,0,1,2.637-.659,4.573,4.573,0,0,1,3.271,1.143,4.053,4.053,0,0,1,1.211,3.1H20.459a1.807,1.807,0,0,0-.4-1.26,1.382,1.382,0,0,0-1.074-.439q-1.279,0-1.494,1.631a11.508,11.508,0,0,0-.068,1.426A4.52,4.52,0,0,0,17.8-2.959,1.319,1.319,0,0,0,19.014-2.344Zm10.391,0a1.464,1.464,0,0,0,1.074-.376,1.379,1.379,0,0,0,.371-1.05h3.086A3.653,3.653,0,0,1,32.69-.918,4.631,4.631,0,0,1,29.482.2,4.689,4.689,0,0,1,25.85-1.25a5.7,5.7,0,0,1-1.328-4v-.137a6.436,6.436,0,0,1,.591-2.827,4.3,4.3,0,0,1,1.7-1.885,5.081,5.081,0,0,1,2.637-.659,4.573,4.573,0,0,1,3.271,1.143,4.053,4.053,0,0,1,1.211,3.1H30.85a1.807,1.807,0,0,0-.4-1.26,1.382,1.382,0,0,0-1.074-.439q-1.279,0-1.494,1.631a11.508,11.508,0,0,0-.068,1.426,4.52,4.52,0,0,0,.381,2.207A1.319,1.319,0,0,0,29.4-2.344ZM38.8,0H35.5V-10.566h3.3ZM35.3-13.291a1.469,1.469,0,0,1,.508-1.152,1.916,1.916,0,0,1,1.318-.449,1.916,1.916,0,0,1,1.318.449,1.469,1.469,0,0,1,.508,1.152,1.469,1.469,0,0,1-.508,1.152,1.916,1.916,0,0,1-1.318.449,1.916,1.916,0,0,1-1.318-.449A1.469,1.469,0,0,1,35.3-13.291Zm5.107,7.91A6.236,6.236,0,0,1,41.025-8.2a4.4,4.4,0,0,1,1.768-1.9,5.323,5.323,0,0,1,2.705-.664,4.858,4.858,0,0,1,3.74,1.47,5.64,5.64,0,0,1,1.367,4v.117a5.472,5.472,0,0,1-1.372,3.921A4.871,4.871,0,0,1,45.518.2a4.927,4.927,0,0,1-3.623-1.353A5.29,5.29,0,0,1,40.42-4.824Zm3.291.205a3.932,3.932,0,0,0,.459,2.148,1.529,1.529,0,0,0,1.357.684q1.758,0,1.8-2.705v-.332q0-2.842-1.816-2.842-1.65,0-1.787,2.451Zm11.377-5.391.107,1.24A3.583,3.583,0,0,1,58.2-10.762a3.015,3.015,0,0,1,2.466.986,4.7,4.7,0,0,1,.845,2.969V0h-3.3V-6.67a1.783,1.783,0,0,0-.322-1.177,1.491,1.491,0,0,0-1.172-.376,1.569,1.569,0,0,0-1.436.762V0H51.992V-10.566ZM68.447.2a5.432,5.432,0,0,1-3.936-1.45,5.008,5.008,0,0,1-1.5-3.774V-5.3a6.489,6.489,0,0,1,.6-2.861,4.395,4.395,0,0,1,1.753-1.919,5.292,5.292,0,0,1,2.734-.679A4.574,4.574,0,0,1,71.611-9.38,5.43,5.43,0,0,1,72.9-5.527v1.279H66.357a2.372,2.372,0,0,0,.771,1.4,2.3,2.3,0,0,0,1.543.508,2.958,2.958,0,0,0,2.441-1.094l1.5,1.777A4.2,4.2,0,0,1,70.874-.308,5.891,5.891,0,0,1,68.447.2Zm-.371-8.418q-1.445,0-1.719,1.914h3.32v-.254a1.63,1.63,0,0,0-.4-1.226A1.593,1.593,0,0,0,68.076-8.223Zm11.68,5.254a.76.76,0,0,0-.439-.674,6.685,6.685,0,0,0-1.67-.527,7.615,7.615,0,0,1-2.031-.718,3.4,3.4,0,0,1-1.221-1.079,2.577,2.577,0,0,1-.42-1.455,2.92,2.92,0,0,1,1.2-2.4,4.948,4.948,0,0,1,3.145-.942,5.482,5.482,0,0,1,3.359.947,2.962,2.962,0,0,1,1.27,2.49h-3.3q0-1.27-1.338-1.27a1.326,1.326,0,0,0-.869.288.892.892,0,0,0-.352.718.819.819,0,0,0,.43.713,4.06,4.06,0,0,0,1.372.449,11.857,11.857,0,0,1,1.655.42A3.007,3.007,0,0,1,82.93-3.066,2.767,2.767,0,0,1,81.646-.713,5.631,5.631,0,0,1,78.32.2,5.747,5.747,0,0,1,75.9-.293a4.05,4.05,0,0,1-1.66-1.328,3.007,3.007,0,0,1-.6-1.768h3.076a1.272,1.272,0,0,0,.488,1.069,2.009,2.009,0,0,0,1.2.337,1.58,1.58,0,0,0,1.011-.273A.875.875,0,0,0,79.756-2.969Zm9.277-2.393a6.455,6.455,0,0,1,1.084-3.955,3.568,3.568,0,0,1,3.027-1.445,3.035,3.035,0,0,1,2.383,1.113V-15h3.3V0H95.869L95.7-1.133A3.116,3.116,0,0,1,93.125.2,3.562,3.562,0,0,1,90.137-1.25,6.659,6.659,0,0,1,89.033-5.361Zm3.291.205q0,2.813,1.641,2.813a1.62,1.62,0,0,0,1.563-.918V-7.285a1.576,1.576,0,0,0-1.543-.937q-1.523,0-1.65,2.461ZM105.811.2a5.432,5.432,0,0,1-3.936-1.45,5.008,5.008,0,0,1-1.5-3.774V-5.3a6.489,6.489,0,0,1,.6-2.861,4.395,4.395,0,0,1,1.753-1.919,5.292,5.292,0,0,1,2.734-.679,4.574,4.574,0,0,1,3.516,1.382,5.43,5.43,0,0,1,1.289,3.853v1.279h-6.543a2.372,2.372,0,0,0,.771,1.4,2.3,2.3,0,0,0,1.543.508,2.958,2.958,0,0,0,2.441-1.094l1.5,1.777a4.2,4.2,0,0,1-1.743,1.353A5.891,5.891,0,0,1,105.811.2Zm-.371-8.418q-1.445,0-1.719,1.914h3.32v-.254a1.63,1.63,0,0,0-.4-1.226A1.593,1.593,0,0,0,105.439-8.223Zm15.6,5.879a1.464,1.464,0,0,0,1.074-.376,1.379,1.379,0,0,0,.371-1.05h3.086a3.653,3.653,0,0,1-1.245,2.852A4.631,4.631,0,0,1,121.113.2,4.689,4.689,0,0,1,117.48-1.25a5.7,5.7,0,0,1-1.328-4v-.137a6.436,6.436,0,0,1,.591-2.827,4.3,4.3,0,0,1,1.7-1.885,5.081,5.081,0,0,1,2.637-.659,4.573,4.573,0,0,1,3.271,1.143,4.053,4.053,0,0,1,1.211,3.1H122.48a1.806,1.806,0,0,0-.4-1.26,1.382,1.382,0,0,0-1.074-.439q-1.279,0-1.494,1.631a11.508,11.508,0,0,0-.068,1.426,4.52,4.52,0,0,0,.381,2.207A1.319,1.319,0,0,0,121.035-2.344Zm5.508-3.037a6.236,6.236,0,0,1,.615-2.817,4.4,4.4,0,0,1,1.768-1.9,5.323,5.323,0,0,1,2.705-.664,4.858,4.858,0,0,1,3.74,1.47,5.64,5.64,0,0,1,1.367,4v.117a5.472,5.472,0,0,1-1.372,3.921A4.871,4.871,0,0,1,131.65.2a4.927,4.927,0,0,1-3.623-1.353,5.29,5.29,0,0,1-1.475-3.667Zm3.291.205a3.932,3.932,0,0,0,.459,2.148,1.529,1.529,0,0,0,1.357.684q1.758,0,1.8-2.705v-.332q0-2.842-1.816-2.842-1.65,0-1.787,2.451Zm11.377-5.391.107,1.24a3.583,3.583,0,0,1,3.018-1.436,3.015,3.015,0,0,1,2.466.986,4.7,4.7,0,0,1,.845,2.969V0h-3.3V-6.67a1.783,1.783,0,0,0-.322-1.177,1.491,1.491,0,0,0-1.172-.376,1.569,1.569,0,0,0-1.436.762V0h-3.291V-10.566ZM155-2.969a.76.76,0,0,0-.439-.674,6.685,6.685,0,0,0-1.67-.527,7.615,7.615,0,0,1-2.031-.718,3.4,3.4,0,0,1-1.221-1.079,2.577,2.577,0,0,1-.42-1.455,2.92,2.92,0,0,1,1.2-2.4,4.948,4.948,0,0,1,3.145-.942,5.482,5.482,0,0,1,3.359.947,2.962,2.962,0,0,1,1.27,2.49h-3.3q0-1.27-1.338-1.27a1.326,1.326,0,0,0-.869.288.892.892,0,0,0-.352.718.819.819,0,0,0,.43.713,4.06,4.06,0,0,0,1.372.449,11.857,11.857,0,0,1,1.655.42,3.007,3.007,0,0,1,2.383,2.939A2.767,2.767,0,0,1,156.89-.713,5.632,5.632,0,0,1,153.564.2a5.747,5.747,0,0,1-2.422-.488,4.05,4.05,0,0,1-1.66-1.328,3.007,3.007,0,0,1-.6-1.768h3.076a1.272,1.272,0,0,0,.488,1.069,2.009,2.009,0,0,0,1.2.337,1.58,1.58,0,0,0,1.011-.273A.875.875,0,0,0,155-2.969ZM164.824.2a5.432,5.432,0,0,1-3.936-1.45,5.008,5.008,0,0,1-1.5-3.774V-5.3a6.489,6.489,0,0,1,.6-2.861,4.395,4.395,0,0,1,1.753-1.919,5.292,5.292,0,0,1,2.734-.679,4.574,4.574,0,0,1,3.516,1.382,5.43,5.43,0,0,1,1.289,3.853v1.279h-6.543a2.372,2.372,0,0,0,.771,1.4,2.3,2.3,0,0,0,1.543.508,2.958,2.958,0,0,0,2.441-1.094l1.5,1.777a4.2,4.2,0,0,1-1.743,1.353A5.891,5.891,0,0,1,164.824.2Zm-.371-8.418q-1.445,0-1.719,1.914h3.32v-.254a1.63,1.63,0,0,0-.4-1.226A1.593,1.593,0,0,0,164.453-8.223Zm12.539.635-1.084-.078a1.947,1.947,0,0,0-1.992.977V0h-3.291V-10.566h3.086l.107,1.357a2.548,2.548,0,0,1,2.314-1.553,3.209,3.209,0,0,1,.918.117Zm5.576,3.672,1.67-6.65h3.467L184.258,0H180.9l-3.447-10.566h3.477ZM194.492,0a3.716,3.716,0,0,1-.312-.947A3.06,3.06,0,0,1,191.641.2a3.749,3.749,0,0,1-2.539-.9,2.875,2.875,0,0,1-1.045-2.271,2.955,2.955,0,0,1,1.27-2.6,6.468,6.468,0,0,1,3.691-.879h1.016v-.559q0-1.462-1.26-1.462A1.03,1.03,0,0,0,191.6-7.319h-3.291a2.95,2.95,0,0,1,1.3-2.487,5.479,5.479,0,0,1,3.325-.956,4.8,4.8,0,0,1,3.193.986,3.429,3.429,0,0,1,1.2,2.705v4.678a4.79,4.79,0,0,0,.449,2.227V0Zm-2.061-2.148a1.836,1.836,0,0,0,1.021-.264,1.652,1.652,0,0,0,.581-.6V-4.7h-.957q-1.719,0-1.719,1.543a.942.942,0,0,0,.3.728A1.1,1.1,0,0,0,192.432-2.148Zm11.191-.2A1.464,1.464,0,0,0,204.7-2.72a1.379,1.379,0,0,0,.371-1.05h3.086a3.653,3.653,0,0,1-1.245,2.852A4.631,4.631,0,0,1,203.7.2a4.689,4.689,0,0,1-3.633-1.445,5.7,5.7,0,0,1-1.328-4v-.137a6.436,6.436,0,0,1,.591-2.827,4.3,4.3,0,0,1,1.7-1.885,5.081,5.081,0,0,1,2.637-.659,4.573,4.573,0,0,1,3.271,1.143,4.053,4.053,0,0,1,1.211,3.1h-3.086a1.807,1.807,0,0,0-.4-1.26,1.382,1.382,0,0,0-1.074-.439q-1.279,0-1.494,1.631a11.507,11.507,0,0,0-.068,1.426,4.52,4.52,0,0,0,.381,2.207A1.319,1.319,0,0,0,203.623-2.344ZM213.018,0h-3.3V-10.566h3.3Zm-3.5-13.291a1.469,1.469,0,0,1,.508-1.152,1.916,1.916,0,0,1,1.318-.449,1.916,1.916,0,0,1,1.318.449,1.469,1.469,0,0,1,.508,1.152,1.469,1.469,0,0,1-.508,1.152,1.916,1.916,0,0,1-1.318.449,1.916,1.916,0,0,1-1.318-.449A1.469,1.469,0,0,1,209.521-13.291Zm5.107,7.91a6.236,6.236,0,0,1,.615-2.817,4.4,4.4,0,0,1,1.768-1.9,5.323,5.323,0,0,1,2.705-.664,4.858,4.858,0,0,1,3.74,1.47,5.64,5.64,0,0,1,1.367,4v.117a5.472,5.472,0,0,1-1.372,3.921A4.871,4.871,0,0,1,219.736.2a4.927,4.927,0,0,1-3.623-1.353,5.29,5.29,0,0,1-1.475-3.667Zm3.291.205a3.932,3.932,0,0,0,.459,2.148,1.529,1.529,0,0,0,1.357.684q1.758,0,1.8-2.705v-.332q0-2.842-1.816-2.842-1.65,0-1.787,2.451ZM220.166-15h3.477l-2.715,3.066-2.686,0Zm9.131,4.434.107,1.24a3.583,3.583,0,0,1,3.018-1.436,3.015,3.015,0,0,1,2.466.986,4.7,4.7,0,0,1,.845,2.969V0h-3.3V-6.67a1.783,1.783,0,0,0-.322-1.177,1.491,1.491,0,0,0-1.172-.376,1.569,1.569,0,0,0-1.436.762V0h-3.291V-10.566Zm9.414,14.395-1.66-.781.332-.664A5.416,5.416,0,0,0,238.1-.039V-2.48h2.637l-.01,2.119a5.3,5.3,0,0,1-.576,2.285A5.806,5.806,0,0,1,238.711,3.828ZM10.732,22.795a6.372,6.372,0,0,1-1.108,3.931A3.554,3.554,0,0,1,6.631,28.2a3.046,3.046,0,0,1-2.393-1.064v4.932H.947V17.434H4.023l.1.977a3.046,3.046,0,0,1,2.49-1.172,3.582,3.582,0,0,1,3.037,1.44,6.45,6.45,0,0,1,1.084,3.96ZM7.441,22.59q0-2.812-1.641-2.812a1.549,1.549,0,0,0-1.562.84v4.16a1.6,1.6,0,0,0,1.582.879q1.572,0,1.621-2.715Zm11.133-2.178-1.084-.078a1.947,1.947,0,0,0-1.992.977V28H12.207V17.434h3.086l.107,1.357a2.548,2.548,0,0,1,2.314-1.553,3.209,3.209,0,0,1,.918.117Zm.42,2.207a6.236,6.236,0,0,1,.615-2.817,4.4,4.4,0,0,1,1.768-1.9,5.323,5.323,0,0,1,2.705-.664,4.858,4.858,0,0,1,3.74,1.47,5.64,5.64,0,0,1,1.367,4v.117a5.472,5.472,0,0,1-1.372,3.921A4.871,4.871,0,0,1,24.1,28.2a4.927,4.927,0,0,1-3.623-1.353A5.29,5.29,0,0,1,19,23.176Zm3.291.205a3.932,3.932,0,0,0,.459,2.148,1.529,1.529,0,0,0,1.357.684q1.758,0,1.8-2.705v-.332q0-2.842-1.816-2.842-1.65,0-1.787,2.451Zm12.188-8.018v2.627h1.738v2.285H34.473v4.834a1.234,1.234,0,0,0,.215.83,1.152,1.152,0,0,0,.85.234,4.828,4.828,0,0,0,.82-.059v2.354A6.074,6.074,0,0,1,34.5,28.2a3.448,3.448,0,0,1-2.51-.8,3.282,3.282,0,0,1-.811-2.432V19.719H29.834V17.434h1.348V14.807ZM42.617,28.2a5.432,5.432,0,0,1-3.936-1.45,5.008,5.008,0,0,1-1.5-3.774V22.7a6.489,6.489,0,0,1,.6-2.861,4.395,4.395,0,0,1,1.753-1.919,5.292,5.292,0,0,1,2.734-.679,4.574,4.574,0,0,1,3.516,1.382,5.43,5.43,0,0,1,1.289,3.853v1.279H40.527a2.372,2.372,0,0,0,.771,1.4,2.3,2.3,0,0,0,1.543.508,2.958,2.958,0,0,0,2.441-1.094l1.5,1.777a4.2,4.2,0,0,1-1.743,1.353A5.891,5.891,0,0,1,42.617,28.2Zm-.371-8.418q-1.445,0-1.719,1.914h3.32v-.254a1.63,1.63,0,0,0-.4-1.226A1.593,1.593,0,0,0,42.246,19.777Zm10.615,5.879a1.464,1.464,0,0,0,1.074-.376,1.379,1.379,0,0,0,.371-1.05h3.086a3.653,3.653,0,0,1-1.245,2.852A4.631,4.631,0,0,1,52.939,28.2a4.689,4.689,0,0,1-3.633-1.445,5.7,5.7,0,0,1-1.328-4v-.137a6.436,6.436,0,0,1,.591-2.827,4.3,4.3,0,0,1,1.7-1.885,5.081,5.081,0,0,1,2.637-.659,4.573,4.573,0,0,1,3.271,1.143,4.053,4.053,0,0,1,1.211,3.1H54.307a1.807,1.807,0,0,0-.4-1.26,1.382,1.382,0,0,0-1.074-.439q-1.279,0-1.494,1.631a11.507,11.507,0,0,0-.068,1.426,4.52,4.52,0,0,0,.381,2.207A1.319,1.319,0,0,0,52.861,25.656Zm10.391,0a1.464,1.464,0,0,0,1.074-.376,1.379,1.379,0,0,0,.371-1.05h3.086a3.653,3.653,0,0,1-1.245,2.852A4.631,4.631,0,0,1,63.33,28.2,4.689,4.689,0,0,1,59.7,26.75a5.7,5.7,0,0,1-1.328-4v-.137a6.436,6.436,0,0,1,.591-2.827,4.3,4.3,0,0,1,1.7-1.885,5.081,5.081,0,0,1,2.637-.659,4.573,4.573,0,0,1,3.271,1.143,4.053,4.053,0,0,1,1.211,3.1H64.7a1.806,1.806,0,0,0-.4-1.26,1.382,1.382,0,0,0-1.074-.439q-1.279,0-1.494,1.631a11.507,11.507,0,0,0-.068,1.426,4.52,4.52,0,0,0,.381,2.207A1.319,1.319,0,0,0,63.252,25.656ZM72.646,28h-3.3V17.434h3.3Zm-3.5-13.291a1.469,1.469,0,0,1,.508-1.152,2.159,2.159,0,0,1,2.637,0,1.561,1.561,0,0,1,0,2.3,2.159,2.159,0,0,1-2.637,0A1.469,1.469,0,0,1,69.15,14.709Zm5.107,7.91a6.236,6.236,0,0,1,.615-2.817,4.4,4.4,0,0,1,1.768-1.9,5.323,5.323,0,0,1,2.705-.664,4.858,4.858,0,0,1,3.74,1.47,5.64,5.64,0,0,1,1.367,4v.117a5.472,5.472,0,0,1-1.372,3.921,4.871,4.871,0,0,1-3.716,1.45,4.927,4.927,0,0,1-3.623-1.353,5.29,5.29,0,0,1-1.475-3.667Zm3.291.205a3.932,3.932,0,0,0,.459,2.148,1.529,1.529,0,0,0,1.357.684q1.758,0,1.8-2.705v-.332q0-2.842-1.816-2.842-1.65,0-1.787,2.451ZM79.795,13h3.477l-2.715,3.066-2.686,0Zm9.131,4.434.107,1.24a3.583,3.583,0,0,1,3.018-1.436,3.015,3.015,0,0,1,2.466.986,4.7,4.7,0,0,1,.845,2.969V28h-3.3V21.33a1.783,1.783,0,0,0-.322-1.177,1.491,1.491,0,0,0-1.172-.376,1.569,1.569,0,0,0-1.436.762V28H85.84V17.434Zm17.461,5.957,1.758-5.957h3.525l-4.307,12.334-.186.449a3.272,3.272,0,0,1-3.242,2.051,5.158,5.158,0,0,1-1.357-.195V29.729h.43a2.251,2.251,0,0,0,1.06-.2,1.216,1.216,0,0,0,.542-.718l.264-.7L101.2,17.434h3.516Zm17.51-2.979-1.084-.078a1.947,1.947,0,0,0-1.992.977V28h-3.291V17.434h3.086l.107,1.357a2.548,2.548,0,0,1,2.314-1.553,3.209,3.209,0,0,1,.918.117Zm6.3,7.783a5.432,5.432,0,0,1-3.936-1.45,5.008,5.008,0,0,1-1.5-3.774V22.7a6.489,6.489,0,0,1,.6-2.861,4.395,4.395,0,0,1,1.753-1.919,5.292,5.292,0,0,1,2.734-.679,4.574,4.574,0,0,1,3.516,1.382,5.43,5.43,0,0,1,1.289,3.853v1.279h-6.543a2.372,2.372,0,0,0,.771,1.4,2.3,2.3,0,0,0,1.543.508,2.958,2.958,0,0,0,2.441-1.094l1.5,1.777a4.2,4.2,0,0,1-1.743,1.353A5.891,5.891,0,0,1,130.2,28.2Zm-.371-8.418q-1.445,0-1.719,1.914h3.32v-.254a1.63,1.63,0,0,0-.4-1.226A1.593,1.593,0,0,0,129.824,19.777Zm11.68,5.254a.76.76,0,0,0-.439-.674,6.684,6.684,0,0,0-1.67-.527,7.615,7.615,0,0,1-2.031-.718,3.4,3.4,0,0,1-1.221-1.079,2.577,2.577,0,0,1-.42-1.455,2.92,2.92,0,0,1,1.2-2.4,4.948,4.948,0,0,1,3.145-.942,5.482,5.482,0,0,1,3.359.947,2.962,2.962,0,0,1,1.27,2.49h-3.3q0-1.27-1.338-1.27a1.326,1.326,0,0,0-.869.288.892.892,0,0,0-.352.718.819.819,0,0,0,.43.713,4.06,4.06,0,0,0,1.372.449,11.857,11.857,0,0,1,1.655.42,3.007,3.007,0,0,1,2.383,2.939,2.767,2.767,0,0,1-1.284,2.354,5.632,5.632,0,0,1-3.325.908,5.747,5.747,0,0,1-2.422-.488,4.05,4.05,0,0,1-1.66-1.328,3.007,3.007,0,0,1-.6-1.768h3.076a1.272,1.272,0,0,0,.488,1.069,2.009,2.009,0,0,0,1.2.337,1.58,1.58,0,0,0,1.011-.273A.875.875,0,0,0,141.5,25.031Zm8.545-10.225v2.627h1.738v2.285h-1.738v4.834a1.234,1.234,0,0,0,.215.83,1.152,1.152,0,0,0,.85.234,4.828,4.828,0,0,0,.82-.059v2.354a6.074,6.074,0,0,1-1.855.283,3.448,3.448,0,0,1-2.51-.8,3.282,3.282,0,0,1-.811-2.432V19.719H145.41V17.434h1.348V14.807ZM159.033,28a3.716,3.716,0,0,1-.312-.947,3.06,3.06,0,0,1-2.539,1.143,3.749,3.749,0,0,1-2.539-.9,2.875,2.875,0,0,1-1.045-2.271,2.955,2.955,0,0,1,1.27-2.6,6.468,6.468,0,0,1,3.691-.879h1.016v-.559q0-1.462-1.26-1.462a1.03,1.03,0,0,0-1.172,1.158h-3.291a2.95,2.95,0,0,1,1.3-2.487,5.479,5.479,0,0,1,3.325-.956,4.8,4.8,0,0,1,3.193.986,3.429,3.429,0,0,1,1.2,2.705v4.678a4.79,4.79,0,0,0,.449,2.227V28Zm-2.061-2.148a1.836,1.836,0,0,0,1.021-.264,1.653,1.653,0,0,0,.581-.6V23.3h-.957q-1.719,0-1.719,1.543a.942.942,0,0,0,.3.728A1.1,1.1,0,0,0,156.973,25.852Zm13.018,1.006a3.393,3.393,0,0,1-2.822,1.338,3.328,3.328,0,0,1-2.632-1.011,4.251,4.251,0,0,1-.894-2.905V17.434h3.291V24.3a1.183,1.183,0,0,0,1.318,1.357,1.72,1.72,0,0,0,1.611-.811V17.434h3.311V28h-3.086Zm11.377-6.445-1.084-.078a1.947,1.947,0,0,0-1.992.977V28H175V17.434h3.086l.107,1.357a2.548,2.548,0,0,1,2.314-1.553,3.209,3.209,0,0,1,.918.117ZM188.213,28a3.716,3.716,0,0,1-.312-.947,3.06,3.06,0,0,1-2.539,1.143,3.749,3.749,0,0,1-2.539-.9,2.875,2.875,0,0,1-1.045-2.271,2.955,2.955,0,0,1,1.27-2.6,6.468,6.468,0,0,1,3.691-.879h1.016v-.559q0-1.462-1.26-1.462a1.03,1.03,0,0,0-1.172,1.158h-3.291a2.95,2.95,0,0,1,1.3-2.487,5.479,5.479,0,0,1,3.325-.956,4.8,4.8,0,0,1,3.193.986,3.429,3.429,0,0,1,1.2,2.705v4.678a4.79,4.79,0,0,0,.449,2.227V28Zm-2.061-2.148a1.836,1.836,0,0,0,1.021-.264,1.653,1.653,0,0,0,.581-.6V23.3H186.8q-1.719,0-1.719,1.543a.942.942,0,0,0,.3.728A1.1,1.1,0,0,0,186.152,25.852Zm11.191-.2a1.464,1.464,0,0,0,1.074-.376,1.379,1.379,0,0,0,.371-1.05h3.086a3.653,3.653,0,0,1-1.245,2.852,4.631,4.631,0,0,1-3.208,1.113,4.689,4.689,0,0,1-3.633-1.445,5.7,5.7,0,0,1-1.328-4v-.137a6.436,6.436,0,0,1,.591-2.827,4.3,4.3,0,0,1,1.7-1.885,5.081,5.081,0,0,1,2.637-.659,4.573,4.573,0,0,1,3.271,1.143,4.053,4.053,0,0,1,1.211,3.1h-3.086a1.807,1.807,0,0,0-.4-1.26,1.382,1.382,0,0,0-1.074-.439q-1.279,0-1.494,1.631a11.507,11.507,0,0,0-.068,1.426,4.52,4.52,0,0,0,.381,2.207A1.319,1.319,0,0,0,197.344,25.656ZM206.738,28h-3.3V17.434h3.3Zm-3.5-13.291a1.469,1.469,0,0,1,.508-1.152,2.159,2.159,0,0,1,2.637,0,1.561,1.561,0,0,1,0,2.3,2.159,2.159,0,0,1-2.637,0A1.469,1.469,0,0,1,203.242,14.709Zm5.107,7.91a6.236,6.236,0,0,1,.615-2.817,4.4,4.4,0,0,1,1.768-1.9,5.323,5.323,0,0,1,2.705-.664,4.858,4.858,0,0,1,3.74,1.47,5.64,5.64,0,0,1,1.367,4v.117a5.472,5.472,0,0,1-1.372,3.921,4.871,4.871,0,0,1-3.716,1.45,4.927,4.927,0,0,1-3.623-1.353,5.29,5.29,0,0,1-1.475-3.667Zm3.291.205a3.932,3.932,0,0,0,.459,2.148,1.529,1.529,0,0,0,1.357.684q1.758,0,1.8-2.705v-.332q0-2.842-1.816-2.842-1.65,0-1.787,2.451ZM213.887,13h3.477l-2.715,3.066-2.686,0Zm9.131,4.434.107,1.24a3.583,3.583,0,0,1,3.018-1.436,3.015,3.015,0,0,1,2.466.986,4.7,4.7,0,0,1,.845,2.969V28h-3.3V21.33a1.783,1.783,0,0,0-.322-1.177,1.491,1.491,0,0,0-1.172-.376,1.569,1.569,0,0,0-1.436.762V28h-3.291V17.434Z" transform="translate(691.108 4507.252)" fill="#03694d"/>
      </g>
      <text id="Planes_de_manejo_" data-name="Planes de manejo " transform="translate(388.716 4822.148)" fill="#fff" font-size="20" font-family="Roboto-Black, Roboto" font-weight="800"><tspan x="0" y="0">Planes de manejo </tspan></text>
      <text id="Indicadores_ambientales" data-name="Indicadores ambientales" transform="translate(1021.607 4819.079)" fill="#fff" font-size="20" font-family="Roboto-Black, Roboto" font-weight="800"><tspan x="0" y="0">Indicadores ambientales</tspan></text>
      <text id="Componentes" transform="translate(242.487 5009.229)" fill="#03694d" font-size="18" font-family="Roboto-Regular, Roboto"><tspan x="0" y="0">Componentes</tspan></text>
      <text id="Requerimientos" transform="translate(400.658 5079.674)" fill="#03694d" font-size="18" font-family="Roboto-Regular, Roboto"><tspan x="0" y="0">Requerimientos</tspan></text>
      <text id="Acciones_de_mejora" data-name="Acciones de mejora" transform="translate(539.527 5009.3)" fill="#03694d" font-size="18" font-family="Roboto-Regular, Roboto"><tspan x="0" y="0">Acciones de mejora</tspan></text>
      <text id="Tipos_de_indicadores" data-name="Tipos de indicadores" transform="translate(885.318 5005.559)" fill="#03694d" font-size="18" font-family="Roboto-Regular, Roboto"><tspan x="0" y="0">Tipos de indicadores</tspan></text>
      <text id="Ejemplo_de_indicadores" data-name="Ejemplo de indicadores" transform="translate(1207.26 5005.559)" fill="#03694d" font-size="18" font-family="Roboto-Regular, Roboto"><tspan x="0" y="0">Ejemplo de indicadores</tspan></text>
      <path id="Trazado_191887" data-name="Trazado 191887" d="M295.391,343.358a11.5,11.5,0,1,1-13.2-9.5,11.5,11.5,0,0,1,13.2,9.5" transform="translate(191.337 4404.514)" fill="#c3e3da"/>
      <path id="Trazado_191709" data-name="Trazado 191709" d="M691.185,254.73a1.834,1.834,0,0,0-1.835,1.835v22.389a34.865,34.865,0,0,1-14.83,28.532l-154.9,64.1a1.852,1.852,0,0,0-.345.187,38.541,38.541,0,0,0-16.566,31.659v18.928a28.842,28.842,0,0,0,3.67-.129v-18.8a34.864,34.864,0,0,1,14.83-28.53l154.9-64.1a1.8,1.8,0,0,0,.345-.189,38.541,38.541,0,0,0,16.566-31.659V256.565A1.835,1.835,0,0,0,691.185,254.73Z" transform="translate(-29.053 4319.971)" fill="#048c66"/>
      <ellipse id="Elipse_5000" data-name="Elipse 5000" cx="8.316" cy="8.33" rx="8.316" ry="8.33" transform="translate(467.058 4741.391)" fill="#048c66"/>
      <g id="Grupo_113244" data-name="Grupo 113244">
        <line id="Línea_135" data-name="Línea 135" x2="370.666" transform="translate(622.304 4816.378)" fill="#09909f" stroke="#048c66" stroke-miterlimit="10" stroke-width="2"/>
        <path id="Trazado_191888" data-name="Trazado 191888" d="M295.391,343.358a11.5,11.5,0,1,1-13.2-9.5,11.5,11.5,0,0,1,13.2,9.5" transform="translate(338.266 4470.309)" fill="#c3e3da"/>
        <ellipse id="Elipse_5002" data-name="Elipse 5002" cx="8.316" cy="8.33" rx="8.316" ry="8.33" transform="translate(613.987 4807.187)" fill="#048c66"/>
        <path id="Trazado_191889" data-name="Trazado 191889" d="M295.391,343.358a11.5,11.5,0,1,1-13.2-9.5,11.5,11.5,0,0,1,13.2,9.5" transform="translate(698.536 4470.309)" fill="#c3e3da"/>
        <ellipse id="Elipse_5003" data-name="Elipse 5003" cx="8.316" cy="8.33" rx="8.316" ry="8.33" transform="translate(974.257 4807.187)" fill="#048c66"/>
      </g>
      <path id="Trazado_191890" data-name="Trazado 191890" d="M272.684,343.358a11.5,11.5,0,1,0,13.2-9.5,11.5,11.5,0,0,0-13.2,9.5" transform="translate(871.127 4404.514)" fill="#c3e3da"/>
      <path id="Trazado_191891" data-name="Trazado 191891" d="M504.545,254.73a1.835,1.835,0,0,1,1.835,1.835v22.389a34.865,34.865,0,0,0,14.83,28.532l154.9,64.1a1.852,1.852,0,0,1,.345.187,38.541,38.541,0,0,1,16.566,31.659v18.928a28.842,28.842,0,0,1-3.67-.129v-18.8A34.865,34.865,0,0,0,674.52,374.9l-154.9-64.1a1.8,1.8,0,0,1-.345-.189,38.541,38.541,0,0,1-16.566-31.659V256.565A1.835,1.835,0,0,1,504.545,254.73Z" transform="translate(463.862 4319.971)" fill="#048c66"/>
      <ellipse id="Elipse_5004" data-name="Elipse 5004" cx="8.316" cy="8.33" rx="8.316" ry="8.33" transform="translate(1146.849 4741.391)" fill="#048c66"/>
    </g>
  </g>
</svg>
