<svg xmlns="http://www.w3.org/2000/svg" width="97.176" height="97.176" viewBox="0 0 97.176 97.176">
  <g id="Grupo_113621" data-name="Grupo 113621" transform="translate(-333.19 -2803.222)">
    <g id="Grupo_108099" data-name="Grupo 108099">
      <g id="Grupo_108051" data-name="Grupo 108051" transform="translate(48.19 -20)">
        <path id="Trazado_147158" data-name="Trazado 147158" d="M97.176,48.588A48.588,48.588,0,1,1,48.588,0,48.588,48.588,0,0,1,97.176,48.588" transform="translate(285 2823.222)" fill="#f28705"/>
        <path id="Trazado_147159" data-name="Trazado 147159" d="M95.824,55.065a40.76,40.76,0,1,1-40.76-40.76,40.759,40.759,0,0,1,40.76,40.76Z" transform="translate(278.522 2816.744)" fill="#fff"/>
      </g>
      <g id="Grupo_108075" data-name="Grupo 108075" transform="translate(313.069 2470.665)">
        <g id="Grupo_108056" data-name="Grupo 108056" transform="translate(34.737 380.217)">
          <g id="Grupo_108054" data-name="Grupo 108054" transform="translate(0 2.559)">
            <path id="Trazado_191892" data-name="Trazado 191892" d="M46.916,383.854c-.016.3-.2.533-.427.523l-2.121-.106a.492.492,0,0,1-.373-.565L44.082,382c.014-.3.208-.534.431-.522l2.118.108c.219.01.387.262.372.564Z" transform="translate(-34.414 -381.477)" fill="#aebfce"/>
            <path id="Trazado_191893" data-name="Trazado 191893" d="M46.1,399.863c.014-.3-.153-.552-.373-.563l-2.12-.1c-.219-.013-.414.22-.428.521l-.085,1.709a.489.489,0,0,0,.373.564l2.12.1c.223.013.412-.22.427-.521Z" transform="translate(-34.445 -380.857)" fill="#aebfce"/>
            <path id="Trazado_191894" data-name="Trazado 191894" d="M42.709,384a.484.484,0,0,1-.11.663l-1.889.969a.49.49,0,0,1-.6-.3l-.78-1.521a.491.491,0,0,1,.11-.668l1.89-.966a.484.484,0,0,1,.6.3Z" transform="translate(-34.58 -381.453)" fill="#aebfce"/>
            <path id="Trazado_191895" data-name="Trazado 191895" d="M50.009,398.267a.489.489,0,0,0-.6-.305l-1.888.969a.487.487,0,0,0-.113.667l.778,1.522a.491.491,0,0,0,.607.3l1.89-.966a.492.492,0,0,0,.109-.67Z" transform="translate(-34.297 -380.901)" fill="#aebfce"/>
            <path id="Trazado_191896" data-name="Trazado 191896" d="M39.124,386.216a.49.49,0,0,1,.24.63L38.21,388.63a.49.49,0,0,1-.677.04l-1.431-.929a.485.485,0,0,1-.238-.631l1.152-1.782a.489.489,0,0,1,.674-.041Z" transform="translate(-34.7 -381.347)" fill="#aebfce"/>
            <path id="Trazado_191897" data-name="Trazado 191897" d="M52.581,394.923a.49.49,0,0,0-.674.041l-1.152,1.784a.486.486,0,0,0,.238.631l1.434.928a.487.487,0,0,0,.676-.042l1.15-1.781a.487.487,0,0,0-.237-.631Z" transform="translate(-34.179 -381.01)" fill="#aebfce"/>
            <path id="Trazado_191898" data-name="Trazado 191898" d="M37.115,389.92c.3.017.537.207.525.427l-.11,2.121c-.009.221-.262.387-.561.373l-1.709-.087c-.3-.016-.536-.208-.523-.431l.107-2.116c.011-.225.265-.39.564-.374Z" transform="translate(-34.737 -381.184)" fill="#aebfce"/>
            <path id="Trazado_191899" data-name="Trazado 191899" d="M53.127,390.734c-.3-.014-.555.152-.564.373l-.108,2.119c-.012.221.221.416.524.428l1.707.088c.3.016.553-.153.563-.375l.109-2.119c.011-.221-.225-.413-.524-.428Z" transform="translate(-34.118 -381.153)" fill="#aebfce"/>
            <path id="Trazado_191900" data-name="Trazado 191900" d="M37.257,394.145a.492.492,0,0,1,.667.109l.966,1.889a.488.488,0,0,1-.3.605l-1.521.779a.492.492,0,0,1-.669-.109l-.965-1.89a.485.485,0,0,1,.3-.6Z" transform="translate(-34.714 -381.036)" fill="#aebfce"/>
            <path id="Trazado_191901" data-name="Trazado 191901" d="M51.526,386.844a.49.49,0,0,0-.3.605l.967,1.888a.487.487,0,0,0,.665.111l1.522-.778a.488.488,0,0,0,.3-.605l-.966-1.89a.492.492,0,0,0-.668-.109Z" transform="translate(-34.162 -381.319)" fill="#aebfce"/>
            <path id="Trazado_191902" data-name="Trazado 191902" d="M39.476,397.731a.494.494,0,0,1,.633-.239l1.781,1.152a.492.492,0,0,1,.041.678L41,400.758a.487.487,0,0,1-.632.235l-1.78-1.151a.487.487,0,0,1-.043-.673Z" transform="translate(-34.608 -380.918)" fill="#aebfce"/>
            <path id="Trazado_191903" data-name="Trazado 191903" d="M48.185,384.274a.49.49,0,0,0,.042.675l1.784,1.151a.486.486,0,0,0,.63-.236l.929-1.438a.489.489,0,0,0-.042-.673L49.747,382.6a.49.49,0,0,0-.632.235Z" transform="translate(-34.271 -381.439)" fill="#aebfce"/>
            <path id="Trazado_191904" data-name="Trazado 191904" d="M45.753,383.106a8.943,8.943,0,1,0,8.479,9.386A8.943,8.943,0,0,0,45.753,383.106ZM45,397.918a5.887,5.887,0,1,1,6.181-5.581A5.886,5.886,0,0,1,45,397.918Z" transform="translate(-34.681 -381.42)" fill="#768296"/>
          </g>
          <g id="Grupo_108055" data-name="Grupo 108055" transform="translate(8.173)">
            <path id="Trazado_191905" data-name="Trazado 191905" d="M51.593,380.754c-.011.22-.151.392-.313.385l-1.561-.08c-.165-.01-.286-.194-.275-.414l.063-1.256c.012-.22.154-.393.317-.385l1.558.079c.162.008.286.195.275.416Z" transform="translate(-42.396 -379.004)" fill="#1c4670"/>
            <path id="Trazado_191906" data-name="Trazado 191906" d="M50.994,392.533c.011-.224-.112-.411-.274-.416l-1.559-.078c-.162-.011-.3.163-.317.383l-.062,1.258a.36.36,0,0,0,.274.414l1.561.078c.161.008.3-.164.313-.384Z" transform="translate(-42.42 -378.548)" fill="#1c4670"/>
            <path id="Trazado_191907" data-name="Trazado 191907" d="M48.5,380.857a.359.359,0,0,1-.081.491l-1.39.71a.362.362,0,0,1-.445-.221l-.572-1.119a.362.362,0,0,1,.079-.492l1.391-.708c.146-.08.347.023.445.218Z" transform="translate(-42.519 -378.987)" fill="#1c4670"/>
            <path id="Trazado_191908" data-name="Trazado 191908" d="M53.869,391.356c-.1-.2-.3-.3-.444-.223l-1.39.71a.361.361,0,0,0-.082.491l.572,1.121a.361.361,0,0,0,.446.223l1.39-.712a.36.36,0,0,0,.08-.491Z" transform="translate(-42.311 -378.58)" fill="#1c4670"/>
            <path id="Trazado_191909" data-name="Trazado 191909" d="M45.86,382.492a.358.358,0,0,1,.177.463l-.85,1.312a.36.36,0,0,1-.5.031l-1.054-.684a.359.359,0,0,1-.176-.465l.849-1.312a.359.359,0,0,1,.495-.029Z" transform="translate(-42.607 -378.909)" fill="#1c4670"/>
            <path id="Trazado_191910" data-name="Trazado 191910" d="M55.761,388.9a.359.359,0,0,0-.5.03l-.847,1.31a.358.358,0,0,0,.175.467l1.055.683a.36.36,0,0,0,.5-.031l.847-1.31a.359.359,0,0,0-.175-.466Z" transform="translate(-42.224 -378.66)" fill="#1c4670"/>
            <path id="Trazado_191911" data-name="Trazado 191911" d="M44.383,385.216c.223.011.394.152.386.315l-.081,1.558c-.007.165-.193.287-.413.277l-1.258-.065c-.22-.011-.392-.151-.383-.317l.078-1.557c.008-.163.194-.287.414-.274Z" transform="translate(-42.635 -378.789)" fill="#1c4670"/>
            <path id="Trazado_191912" data-name="Trazado 191912" d="M56.162,385.815c-.22-.01-.407.111-.415.273l-.08,1.559c-.008.164.165.306.387.317l1.254.064c.219.01.406-.111.415-.277l.079-1.557c.009-.165-.165-.305-.385-.317Z" transform="translate(-42.179 -378.766)" fill="#1c4670"/>
            <path id="Trazado_191913" data-name="Trazado 191913" d="M44.487,388.325a.362.362,0,0,1,.491.079l.71,1.389a.36.36,0,0,1-.221.447l-1.12.572a.36.36,0,0,1-.491-.082l-.71-1.389a.36.36,0,0,1,.219-.446Z" transform="translate(-42.618 -378.68)" fill="#1c4670"/>
            <path id="Trazado_191914" data-name="Trazado 191914" d="M54.985,382.953a.357.357,0,0,0-.22.445l.708,1.39a.361.361,0,0,0,.493.08l1.12-.571a.359.359,0,0,0,.219-.446L56.6,382.46a.361.361,0,0,0-.491-.08Z" transform="translate(-42.211 -378.888)" fill="#1c4670"/>
            <path id="Trazado_191915" data-name="Trazado 191915" d="M46.119,390.962a.364.364,0,0,1,.467-.176l1.31.848a.361.361,0,0,1,.031.5l-.683,1.057a.359.359,0,0,1-.467.173l-1.31-.847a.359.359,0,0,1-.031-.495Z" transform="translate(-42.54 -378.593)" fill="#1c4670"/>
            <path id="Trazado_191916" data-name="Trazado 191916" d="M52.526,381.064a.359.359,0,0,0,.033.5l1.31.846a.358.358,0,0,0,.465-.174l.684-1.056a.363.363,0,0,0-.031-.5l-1.31-.849a.364.364,0,0,0-.467.175Z" transform="translate(-42.291 -378.976)" fill="#1c4670"/>
            <path id="Trazado_191917" data-name="Trazado 191917" d="M50.738,380.2a6.58,6.58,0,1,0,6.236,6.905A6.58,6.58,0,0,0,50.738,380.2Zm-.553,10.9a4.332,4.332,0,1,1,4.545-4.1A4.331,4.331,0,0,1,50.185,391.1Z" transform="translate(-42.593 -378.962)" fill="#1c4670"/>
          </g>
        </g>
        <g id="Grupo_108061" data-name="Grupo 108061" transform="translate(67.224 385.882)">
          <g id="Grupo_108057" data-name="Grupo 108057" transform="translate(0 9.028)">
            <path id="Trazado_191918" data-name="Trazado 191918" d="M66.188,398.242c-.246-.774.292-.554.64-.072s2.916,3.508,4.339-.4c1.495-3.884-2.431-3.284-3.01-3.152s-1.128-.051-.432-.474a5.044,5.044,0,0,1,4.976-.477c2.422,1.112,1.855,3.953,1.391,5.2s-1.9,3.759-4.459,3.01A5.048,5.048,0,0,1,66.188,398.242Z" transform="translate(-66.126 -393.2)" fill="#1c4670"/>
            <path id="Trazado_191919" data-name="Trazado 191919" d="M94.4,408.8c.7-.424.147-.608-.431-.473s-4.5.733-3.012-3.155c1.422-3.909,3.989-.883,4.339-.4s.886.7.638-.076a5.047,5.047,0,0,0-3.439-3.625c-2.562-.748-4,1.766-4.463,3.01s-1.03,4.084,1.393,5.2A5.035,5.035,0,0,0,94.4,408.8Z" transform="translate(-65.374 -392.93)" fill="#1c4670"/>
            <rect id="Rectángulo_40342" data-name="Rectángulo 40342" width="1.713" height="16.604" transform="translate(7.535 5.505) rotate(-69.553)" fill="#1c4670"/>
            <rect id="Rectángulo_40343" data-name="Rectángulo 40343" width="1.715" height="16.605" transform="translate(6.935 7.109) rotate(-69.533)" fill="#1c4670"/>
            <path id="Trazado_191920" data-name="Trazado 191920" d="M93.969,408.223c.578-.135,1.126.049.431.473a5.035,5.035,0,0,1-4.975.476c-2.423-1.112-1.855-3.955-1.393-5.2l2.926,1.092C89.466,408.955,93.39,408.354,93.969,408.223Z" transform="translate(-65.374 -392.823)" fill="#1c4670"/>
            <path id="Trazado_191921" data-name="Trazado 191921" d="M69.634,401.716a5.048,5.048,0,0,1-3.445-3.627c-.246-.774.292-.554.64-.072s2.916,3.508,4.339-.4l2.926,1.094C73.625,399.949,72.188,402.465,69.634,401.716Z" transform="translate(-66.126 -393.047)" fill="#1c4670"/>
          </g>
          <g id="Grupo_108060" data-name="Grupo 108060" transform="translate(8.34)">
            <g id="Grupo_108058" data-name="Grupo 108058" transform="translate(5.371)">
              <rect id="Rectángulo_40344" data-name="Rectángulo 40344" width="15.253" height="1.327" transform="translate(0 17.952) rotate(-69.557)" fill="#fcd751"/>
              <rect id="Rectángulo_40345" data-name="Rectángulo 40345" width="15.254" height="1.324" transform="translate(1.235 18.413) rotate(-69.491)" fill="#ffa229"/>
              <path id="Trazado_191922" data-name="Trazado 191922" d="M85.213,390.207s-2.2-1.219-1.851-2.226,2.789-3.9,3.974-3.457Z" transform="translate(-79.235 -384.478)" fill="#fcd751"/>
              <path id="Trazado_191923" data-name="Trazado 191923" d="M85.149,390.205s2.463.526,2.858-.466.457-4.775-.734-5.217Z" transform="translate(-79.172 -384.476)" fill="#ffa229"/>
            </g>
            <g id="Grupo_108059" data-name="Grupo 108059" transform="translate(0 15.04)">
              <path id="Trazado_191924" data-name="Trazado 191924" d="M78.936,414.329a2.456,2.456,0,0,1-3.157,1.438h0a2.454,2.454,0,0,1-1.44-3.156l4.26-11.39a2.451,2.451,0,0,1,3.156-1.441h0a2.45,2.45,0,0,1,1.438,3.157Z" transform="translate(-74.184 -398.988)" fill="#aebfce"/>
              <path id="Trazado_191925" data-name="Trazado 191925" d="M76.538,414.853a.5.5,0,0,1-.62.342h0a.5.5,0,0,1-.246-.664l4.735-12.664a.5.5,0,0,1,.621-.343h0a.5.5,0,0,1,.246.661Z" transform="translate(-74.133 -398.922)" fill="#768296"/>
              <path id="Trazado_191926" data-name="Trazado 191926" d="M78.073,414.709a.5.5,0,0,1-.621.342h0a.5.5,0,0,1-.242-.667l4.733-12.663a.5.5,0,0,1,.621-.342h0a.5.5,0,0,1,.244.667Z" transform="translate(-74.08 -398.927)" fill="#768296"/>
              <path id="Trazado_191927" data-name="Trazado 191927" d="M74.607,413.412a.5.5,0,0,0,.246.667h0a.5.5,0,0,0,.619-.342l4.735-12.663a.5.5,0,0,0-.244-.667h0a.5.5,0,0,0-.619.344Z" transform="translate(-74.17 -398.961)" fill="#768296"/>
              <path id="Trazado_191928" data-name="Trazado 191928" d="M84.247,402.085a1.217,1.217,0,0,1-1.567.713l-3.826-1.43a1.22,1.22,0,0,1-.714-1.569h0a1.218,1.218,0,0,1,1.566-.712l3.828,1.43a1.218,1.218,0,0,1,.713,1.568Z" transform="translate(-74.048 -399.009)" fill="#768296"/>
              <path id="Trazado_191929" data-name="Trazado 191929" d="M83.883,401.649a1,1,0,0,1-1.305.514l-3.266-1.224a.991.991,0,0,1-.648-1.239h0a.989.989,0,0,1,1.3-.512l3.268,1.22a.993.993,0,0,1,.649,1.241Z" transform="translate(-74.029 -399.005)" fill="#768296"/>
            </g>
          </g>
        </g>
        <g id="Grupo_108064" data-name="Grupo 108064" transform="translate(53.597 344.329)">
          <g id="Grupo_108062" data-name="Grupo 108062" transform="translate(8.94 19.35)">
            <path id="Trazado_191930" data-name="Trazado 191930" d="M73.365,374.761l-4.873-8.438a1.342,1.342,0,0,0-1.906,0l-4.873,8.438a.855.855,0,1,0,1.481.853l4.345-7.522,4.346,7.522a.854.854,0,1,0,1.48-.853Z" transform="translate(-61.598 -362.924)" fill="#1c4670"/>
            <path id="Trazado_191931" data-name="Trazado 191931" d="M68.4,375.807a1.032,1.032,0,0,1-1.031,1.032h0a1.032,1.032,0,0,1-1.031-1.032v-11.75a1.032,1.032,0,0,1,1.031-1.032h0a1.032,1.032,0,0,1,1.031,1.032Z" transform="translate(-61.432 -363.025)" fill="#1c4670"/>
          </g>
          <path id="Rectángulo_40346" data-name="Rectángulo 40346" d="M1.413,0H26.445A1.415,1.415,0,0,1,27.86,1.415V18.1a1.413,1.413,0,0,1-1.413,1.413H1.415A1.415,1.415,0,0,1,0,18.1V1.413A1.413,1.413,0,0,1,1.413,0Z" transform="translate(0.951 1.247)" fill="#aebfce"/>
          <g id="Grupo_108063" data-name="Grupo 108063" transform="translate(5.809 4.781)">
            <rect id="Rectángulo_40347" data-name="Rectángulo 40347" width="1.861" height="6.605" transform="translate(3.688 6.118)" fill="#fcd751"/>
            <rect id="Rectángulo_40348" data-name="Rectángulo 40348" width="1.862" height="9.619" transform="translate(6.913 3.104)" fill="#fcd751"/>
            <rect id="Rectángulo_40349" data-name="Rectángulo 40349" width="1.859" height="4.697" transform="translate(10.969 8.026)" fill="#fcd751"/>
            <rect id="Rectángulo_40350" data-name="Rectángulo 40350" width="1.86" height="6.605" transform="translate(14.608 6.118)" fill="#fcd751"/>
            <path id="Trazado_191932" data-name="Trazado 191932" d="M73.98,351.064l-1.583.93.6.332-2.71,3.33-3.879-6.707L62.3,354.365l.411.209,3.639-4.8,3.863,6.682,3.185-3.91.595.328Z" transform="translate(-58.442 -348.948)" fill="#fff"/>
            <rect id="Rectángulo_40351" data-name="Rectángulo 40351" width="0.554" height="14.241" transform="translate(1.383)" fill="#fff"/>
            <rect id="Rectángulo_40352" data-name="Rectángulo 40352" width="18.144" height="0.505" transform="translate(0 12.723)" fill="#fff"/>
          </g>
          <path id="Trazado_191933" data-name="Trazado 191933" d="M82.722,345.792a1.462,1.462,0,0,1-1.465,1.462H54.423a1.462,1.462,0,0,1-1.463-1.462h0a1.464,1.464,0,0,1,1.463-1.463H81.257a1.464,1.464,0,0,1,1.465,1.463Z" transform="translate(-52.96 -344.329)" fill="#1c4670"/>
        </g>
        <g id="Grupo_108065" data-name="Grupo 108065" transform="translate(88.664 361.99)">
          <path id="Trazado_191934" data-name="Trazado 191934" d="M87.444,399.3l-.6-.561a27.713,27.713,0,0,0,.826-36.81l.628-.533a28.54,28.54,0,0,1-.851,37.9Z" transform="translate(-86.841 -361.393)" fill="#768296"/>
        </g>
        <g id="Grupo_108066" data-name="Grupo 108066" transform="translate(39.826 357.197)">
          <path id="Trazado_191935" data-name="Trazado 191935" d="M40.479,380.028h-.825a28.611,28.611,0,0,1,12.012-23.266l.476.669A27.792,27.792,0,0,0,40.479,380.028Z" transform="translate(-39.654 -356.762)" fill="#768296"/>
        </g>
        <g id="Grupo_108067" data-name="Grupo 108067" transform="translate(53.401 404.067)">
          <path id="Trazado_191936" data-name="Trazado 191936" d="M67.733,406.983a28.481,28.481,0,0,1-14.963-4.232l.434-.7a27.785,27.785,0,0,0,20.929,3.369l.189.8A28.618,28.618,0,0,1,67.733,406.983Z" transform="translate(-52.77 -402.048)" fill="#768296"/>
        </g>
        <g id="Grupo_108074" data-name="Grupo 108074" transform="translate(70.813 353.186)">
          <g id="Grupo_108068" data-name="Grupo 108068" transform="translate(0)">
            <path id="Trazado_191937" data-name="Trazado 191937" d="M78.032,369.762A8.439,8.439,0,1,1,84,367.291,8.382,8.382,0,0,1,78.032,369.762Zm0-14.406a5.968,5.968,0,1,0,4.221,1.749A5.932,5.932,0,0,0,78.032,355.356Z" transform="translate(-69.594 -352.887)" fill="#1c4670"/>
          </g>
          <g id="Grupo_108069" data-name="Grupo 108069" transform="translate(12.561 12.561)">
            <rect id="Rectángulo_40353" data-name="Rectángulo 40353" width="2.47" height="5.481" transform="translate(0 1.746) rotate(-44.992)" fill="#1c4670"/>
          </g>
          <path id="Trazado_191938" data-name="Trazado 191938" d="M97.587,378.208a1.117,1.117,0,0,1,0,1.58l-1.091,1.09a1.118,1.118,0,0,1-1.581,0L84.626,370.587a1.116,1.116,0,0,1,0-1.581l1.088-1.089a1.123,1.123,0,0,1,1.582,0Z" transform="translate(-69.08 -352.373)" fill="#ffa229"/>
          <g id="Grupo_108070" data-name="Grupo 108070" transform="translate(16.275 16.279)">
            <rect id="Rectángulo_40354" data-name="Rectángulo 40354" width="3.776" height="0.824" transform="matrix(0.709, -0.706, 0.706, 0.709, 0, 2.664)" fill="#1c4670"/>
          </g>
          <g id="Grupo_108071" data-name="Grupo 108071" transform="translate(17.201 17.2)">
            <rect id="Rectángulo_40355" data-name="Rectángulo 40355" width="3.777" height="0.823" transform="matrix(0.707, -0.707, 0.707, 0.707, 0, 2.672)" fill="#1c4670"/>
          </g>
          <g id="Grupo_108072" data-name="Grupo 108072" transform="translate(24.52 24.522)">
            <rect id="Rectángulo_40356" data-name="Rectángulo 40356" width="3.778" height="0.824" transform="matrix(0.708, -0.706, 0.706, 0.708, 0, 2.669)" fill="#1c4670"/>
          </g>
          <g id="Grupo_108073" data-name="Grupo 108073" transform="translate(23.6 23.596)">
            <rect id="Rectángulo_40357" data-name="Rectángulo 40357" width="3.776" height="0.824" transform="translate(0 2.672) rotate(-45.051)" fill="#1c4670"/>
          </g>
        </g>
      </g>
    </g>
  </g>
</svg>
